0
SECTION
2
HEADER
9
$INSUNITS
70
4
9
$ACADVER
1
AC1014
9
$HANDSEED
5
FFFF
0
ENDSEC
0
SECTION
2
TABLES
0
TABLE
2
VPORT
5
8
100
AcDbSymbolTable
0
ENDTAB
0
TABLE
2
LTYPE
5
5
100
AcDbSymbolTable
0
LTYPE
5
14
100
AcDbSymbolTableRecord
100
AcDbLinetypeTableRecord
2
BYBLOCK
70
0
0
LTYPE
5
15
100
AcDbSymbolTableRecord
100
AcDbLinetypeTableRecord
2
BYLAYER
70
0
0
ENDTAB
0
TABLE
2
LAYER
5
2
100
AcDbSymbolTable
70
2
0
LAYER
5
50
100
AcDbSymbolTableRecord
100
AcDbLayerTableRecord
2
0
70
0
6
CONTINUOUS
0
ENDTAB
0
TABLE
2
STYLE
5
3
100
AcDbSymbolTable
70
1
0
STYLE
5
11
100
AcDbSymbolTableRecord
100
AcDbTextStyleTableRecord
2
STANDARD
70
0
0
ENDTAB
0
TABLE
2
VIEW
5
6
100
AcDbSymbolTable
70
0
0
ENDTAB
0
TABLE
2
UCS
5
7
100
AcDbSymbolTable
70
0
0
ENDTAB
0
TABLE
2
APPID
5
9
100
AcDbSymbolTable
70
2
0
APPID
5
12
100
AcDbSymbolTableRecord
100
AcDbRegAppTableRecord
2
ACAD
70
0
0
ENDTAB
0
TABLE
2
DIMSTYLE
5
A
100
AcDbSymbolTable
70
1
0
ENDTAB
0
TABLE
2
BLOCK_RECORD
5
1
100
AcDbSymbolTable
70
1
0
BLOCK_RECORD
5
1F
100
AcDbSymbolTableRecord
100
AcDbBlockTableRecord
2
*MODEL_SPACE
0
BLOCK_RECORD
5
1B
100
AcDbSymbolTableRecord
100
AcDbBlockTableRecord
2
*PAPER_SPACE
0
ENDTAB
0
ENDSEC
0
SECTION
2
BLOCKS
0
BLOCK
5
20
100
AcDbEntity
100
AcDbBlockBegin
2
*MODEL_SPACE
0
ENDBLK
5
21
100
AcDbEntity
100
AcDbBlockEnd
0
BLOCK
5
1C
100
AcDbEntity
100
AcDbBlockBegin
2
*PAPER_SPACE
0
ENDBLK
5
1D
100
AcDbEntity
100
AcDbBlockEnd
0
ENDSEC
0
SECTION
2
ENTITIES
0
LWPOLYLINE
5
100
100
AcDbEntity
8
0
100
AcDbPolyline
90
4
70
1
43
0.0
10
-135.03676560944649
20
81.916183538643253
10
-119.03687964187125
20
88.916133649457379
10
-118.63600367242988
20
88.000001311302185
10
-134.63600391084844
20
81.000001206994057
0
LWPOLYLINE
5
101
100
AcDbEntity
8
0
100
AcDbPolyline
90
4
70
1
43
0.0
10
-100.59923980641926
20
81.916183538643253
10
-101.00000150501728
20
81.000001206994057
10
-117.00000174343586
20
88.000001311302185
10
-116.5991257739945
20
88.916133649457379
0
LWPOLYLINE
5
102
100
AcDbEntity
8
0
100
AcDbPolyline
90
4
70
1
43
0.0
10
-135.83834614206421
20
83.748523205194644
10
-119.83857444533231
20
90.748423322514725
10
-119.43775561131262
20
89.832265987612544
10
-135.43752730804451
20
82.832365870292449
0
LWPOLYLINE
5
103
100
AcDbEntity
8
0
100
AcDbPolyline
90
4
70
1
43
0.0
10
-114.99579330249402
20
92.580737992319115
10
-98.996021605762095
20
85.58083787499902
10
-99.396840439781812
20
84.664680540096825
10
-115.39661213651372
20
91.66458065741692
0
LWPOLYLINE
5
104
100
AcDbEntity
8
0
100
AcDbPolyline
90
4
70
1
43
0.0
10
-99.797659273801514
20
83.748523205194644
10
-100.19847810782123
20
82.832365870292449
10
-116.19824980455311
20
89.832265987612544
10
-115.79743097053341
20
90.748423322514725
0
LWPOLYLINE
5
105
100
AcDbEntity
8
0
100
AcDbPolyline
90
4
70
1
43
0.0
10
-120.64021211337172
20
92.580737992319115
10
-120.23939327935202
20
91.66458065741692
10
-136.23916497608394
20
84.664680540096825
10
-136.63998381010364
20
85.58083787499902
0
LWPOLYLINE
5
106
100
AcDbEntity
8
0
100
AcDbPolyline
90
68
70
1
43
0.0
10
-126.44736319172677
20
31.520920504473906
10
-126.38240091346623
20
31.537117419567817
10
-126.28149757034473
20
31.652954884392955
10
-126.8232248748585
20
36.064968987217128
10
-126.4205531581721
20
36.165366316376918
10
-123.31800270793288
20
36.165366316376947
10
-123.31800270793288
20
33.665366301475778
10
-112.31800270793286
20
33.665366301475778
10
-112.31800270793286
20
36.165366316376947
10
-109.81271349488705
20
36.165366316376947
10
-108.81278053804633
20
35.916054986487978
10
-109.36531115356098
20
31.416054990953761
10
-108.92659852286486
20
31.3066716531991
10
-70.636002957174142
20
0
10
-50.214569102890259
20
-4.084456101634709
10
-18.191372044329349
20
1.649251988573488
10
-10.145805392867718
20
33.918259166069753
10
-9.9038834058724685
20
34.888556113910553
10
-5.5371924058724691
20
52.402394113910553
10
-5.2952703928677147
20
53.372689166069762
10
-0.5656975638446804
20
72.341970781369
10
-20.99042278136902
20
77.43442643615532
10
-22.718652162387691
20
70.502876588100747
10
-39.747341153065008
20
74.748605603889843
10
-41.201489245999269
20
75.116684210517519
10
-42.354937810646433
20
70.490455493495205
10
-58.898481387918942
20
74.615223936793598
10
-57.746317444861305
20
79.236301377178094
10
-59.201772153065008
20
79.599139603889824
10
-76.230460506592564
20
83.844868460819669
10
-75.203596290554984
20
87.963396116247281
10
-66.270020218631004
20
85.736005563844657
10
-61.17756456384469
20
106.16073078136901
10
-80.146846166069778
20
110.89030360713231
10
-81.21684116606977
20
111.19222360713231
10
-100.18612278136901
20
115.92179643615535
10
-101.44332391369286
20
110.87943781556717
42
0.80755112370407733
10
-133.70347671034762
20
110.94887833301925
10
-135.02355564415817
20
116.24342484294428
10
-136.479737846935
20
115.88350460388986
10
-153.99357484693496
20
111.51681460388984
10
-155.06357083393024
20
111.21489460713229
10
-174.02654284852696
20
106.4868949381609
10
-173.66996959412756
20
105.02987811391057
10
-169.30327859412753
20
87.516040113910549
10
-168.93278055726537
20
86.062495231741281
10
-160.44817234471256
20
88.177945651639106
10
-160.19424860713232
20
87.159513166069772
10
-159.4049784950287
20
83.993923467322048
10
-176.43366783393026
20
79.748194607132291
10
-177.889111494887
20
79.385311683623073
10
-176.73695838338546
20
74.764278744485807
10
-193.28050135952299
20
70.63951045106721
10
-194.432654218631
20
75.260543436155316
10
-212.91678676080164
20
70.65193184967319
10
-214.66805921863107
20
77.675902436155312
10
-235.09278443615531
20
72.58344678136902
10
-230.36321160713229
20
53.614165166069753
10
-230.12129160388983
20
52.643869153065012
10
-225.75460160388985
20
35.130032153065009
10
-225.51267959088509
20
34.159734100905787
10
-217.40484945634716
20
1.641011022037322
10
-195.00000290572643
20
-3.0000000447034836
10
-165.0000024586916
20
-4.4408920985006262e-15
10
-151.84302914533774
20
10.757237838320419
10
-150.89357213388161
20
9.5959749983927765
10
-142.38069883324798
20
16.556162619162539
10
-143.33015584470411
20
17.717425459090187
0
CIRCLE
5
107
100
AcDbEntity
8
0
100
AcDbCircle
10
-169.53437619480084
20
7.0529095419428085
30
0
40
6.2220569037773288
210
0
220
-0
230
1
0
CIRCLE
5
108
100
AcDbEntity
8
0
100
AcDbCircle
10
-185.00000275671482
20
4.0000000596046448
30
0
40
4.8017619226460431
210
0
220
-0
230
1
0
LWPOLYLINE
5
109
100
AcDbEntity
8
0
100
AcDbPolyline
90
4
70
1
43
0.0
10
-69.760997326167825
20
2.5389755495296749
42
0.93667854553278529
10
-67.70484607286258
20
2.0043762236702833
10
-65.266907417112819
20
11.782414662565486
42
0.96715657576328606
10
-67.311043376684552
20
12.36520470220837
0
LWPOLYLINE
5
110
100
AcDbEntity
8
0
100
AcDbPolyline
90
4
70
1
43
0.0
10
-60.77703182171679
20
-0.22501463142686551
42
0.97257956670817913
10
-58.000000864267335
20
-1.0000000149011556
10
-55.282366743366815
20
9.8998357272112294
42
0.70485670001483014
10
-58.059397700816262
20
10.674821110685501
0
LWPOLYLINE
5
111
100
AcDbEntity
8
0
100
AcDbPolyline
90
4
70
1
43
0.0
10
-51.000000759959221
20
-2.0000000298023224
42
0.98620755707750141
10
-48.950401274374052
20
-2.4854314869145719
10
-46.950401244571729
20
6.5145686471958548
42
1.0139853348552574
10
-49.000000730156891
20
7.0000001043081328
0
LWPOLYLINE
5
112
100
AcDbEntity
8
0
100
AcDbPolyline
90
24
70
1
43
0.0
10
-122.6054529877028
20
111.168036912131
10
-122.72975298770277
20
111.07203691213095
10
-122.87445298770278
20
111.01203691213098
10
-123.02975298770278
20
110.99203691213103
10
-123.18505298770275
20
111.01203691213098
10
-123.32975298770278
20
111.07203691213098
10
-123.45405298770277
20
111.16803691213102
10
-123.54935298770278
20
111.292036912131
10
-123.60935298770278
20
111.43703691213099
10
-123.62975298770279
20
111.59203691213101
10
-123.60935298770278
20
111.74703691213099
10
-123.54935298770278
20
111.89203691213098
10
-123.45405298770277
20
112.01603691213097
10
-123.32975298770278
20
112.11203691213097
10
-123.18505298770275
20
112.17203691213101
10
-123.02975298770278
20
112.19203691213102
10
-122.87445298770278
20
112.17203691213101
10
-122.72975298770277
20
112.11203691213097
10
-122.6054529877028
20
112.01603691213097
10
-122.51015298770277
20
111.89203691213098
10
-122.45025298770278
20
111.74703691213099
10
-122.42975298770277
20
111.59203691213101
10
-122.45025298770278
20
111.43703691213099
10
-122.51015298770277
20
111.29203691213101
0
LWPOLYLINE
5
113
100
AcDbEntity
8
0
100
AcDbPolyline
90
24
70
1
43
0.0
10
-122.51015298770277
20
104.77203691213109
10
-122.45025298770278
20
104.62703691213108
10
-122.42975298770277
20
104.47203691213105
10
-122.45025298770278
20
104.31703691213104
10
-122.51015298770277
20
104.17203691213109
10
-122.6054529877028
20
104.04803691213107
10
-122.72975298770277
20
103.95203691213112
10
-122.87445298770278
20
103.89203691213105
10
-123.02975298770278
20
103.87203691213109
10
-123.18505298770278
20
103.89203691213105
10
-123.32975298770278
20
103.95203691213109
10
-123.45405298770277
20
104.04803691213107
10
-123.54935298770278
20
104.17203691213109
10
-123.60935298770278
20
104.31703691213104
10
-123.62975298770279
20
104.47203691213105
10
-123.60935298770278
20
104.62703691213106
10
-123.54935298770278
20
104.77203691213109
10
-123.45405298770277
20
104.89603691213105
10
-123.32975298770278
20
104.99203691213108
10
-123.18505298770278
20
105.05203691213109
10
-123.02975298770278
20
105.07203691213107
10
-122.87445298770278
20
105.05203691213109
10
-122.72975298770277
20
104.99203691213108
10
-122.6054529877028
20
104.89603691213105
0
LWPOLYLINE
5
114
100
AcDbEntity
8
0
100
AcDbPolyline
90
24
70
1
43
0.0
10
-123.45405298770277
20
105.82803691213107
10
-123.54935298770278
20
105.95203691213104
10
-123.60935298770278
20
106.09703691213102
10
-123.62975298770279
20
106.25203691213105
10
-123.60935298770278
20
106.40703691213105
10
-123.54935298770278
20
106.55203691213109
10
-123.45405298770277
20
106.6760369121311
10
-123.32975298770278
20
106.77203691213106
10
-123.18505298770278
20
106.83203691213102
10
-123.02975298770278
20
106.85203691213104
10
-122.87445298770278
20
106.83203691213102
10
-122.72975298770277
20
106.77203691213106
10
-122.6054529877028
20
106.6760369121311
10
-122.51015298770277
20
106.55203691213106
10
-122.45025298770278
20
106.40703691213105
10
-122.42975298770277
20
106.25203691213105
10
-122.45025298770278
20
106.09703691213102
10
-122.51015298770277
20
105.95203691213104
10
-122.6054529877028
20
105.82803691213107
10
-122.72975298770277
20
105.73203691213106
10
-122.87445298770278
20
105.67203691213106
10
-123.02975298770278
20
105.65203691213111
10
-123.18505298770278
20
105.67203691213106
10
-123.32975298770278
20
105.73203691213106
0
LWPOLYLINE
5
115
100
AcDbEntity
8
0
100
AcDbPolyline
90
24
70
1
43
0.0
10
-112.75405298770293
20
105.78603691213111
10
-112.62975298770289
20
105.88203691213107
10
-112.48505298770289
20
105.94203691213107
10
-112.3297529877029
20
105.96203691213105
10
-112.17445298770289
20
105.94203691213107
10
-112.02975298770296
20
105.88203691213107
10
-111.90545298770289
20
105.78603691213111
10
-111.81015298770289
20
105.66203691213107
10
-111.75025298770291
20
105.51703691213106
10
-111.72975298770288
20
105.36203691213115
10
-111.75025298770291
20
105.20703691213107
10
-111.81015298770289
20
105.06203691213111
10
-111.90545298770289
20
104.93803691213111
10
-112.02975298770296
20
104.84203691213111
10
-112.17445298770289
20
104.78203691213113
10
-112.3297529877029
20
104.76203691213112
10
-112.48505298770289
20
104.78203691213113
10
-112.62975298770289
20
104.84203691213111
10
-112.75405298770293
20
104.9380369121311
10
-112.84935298770284
20
105.06203691213111
10
-112.90935298770285
20
105.20703691213109
10
-112.92975298770286
20
105.36203691213112
10
-112.90935298770285
20
105.51703691213106
10
-112.84935298770284
20
105.66203691213107
0
LWPOLYLINE
5
116
100
AcDbEntity
8
0
100
AcDbPolyline
90
32
70
1
43
0.0
10
-121.42695298770278
20
98.592036912131107
10
-121.54935298770278
20
98.606036912131074
10
-121.66555298770277
20
98.646036912131123
10
-121.76985298770278
20
98.712036912131097
10
-121.85695298770277
20
98.799036912131086
10
-121.92245298770275
20
98.903036912131086
10
-121.96315298770278
20
99.020036912131133
10
-121.97695298770277
20
99.142036912131147
10
-121.97695298770277
20
114.892036912131
10
-121.96315298770278
20
115.014036912131
10
-121.92245298770275
20
115.13103691213101
10
-121.85695298770277
20
115.23503691213099
10
-121.76985298770278
20
115.322036912131
10
-121.66555298770277
20
115.38803691213099
10
-121.54935298770278
20
115.42803691213103
10
-121.42695298770278
20
115.442036912131
10
-113.92695298770285
20
115.442036912131
10
-113.80455298770289
20
115.42803691213103
10
-113.68835298770284
20
115.38803691213099
10
-113.58405298770285
20
115.322036912131
10
-113.49695298770287
20
115.23503691213102
10
-113.43145298770287
20
115.13103691213101
10
-113.39075298770288
20
115.014036912131
10
-113.37695298770285
20
114.892036912131
10
-113.37695298770285
20
99.142036912131147
10
-113.39075298770288
20
99.020036912131133
10
-113.43145298770287
20
98.903036912131128
10
-113.49695298770287
20
98.799036912131086
10
-113.58405298770285
20
98.712036912131083
10
-113.68835298770284
20
98.646036912131123
10
-113.80455298770289
20
98.606036912131074
10
-113.92695298770285
20
98.592036912131107
0
LWPOLYLINE
5
117
100
AcDbEntity
8
0
100
AcDbPolyline
90
24
70
1
43
0.0
10
-123.18505298770275
20
109.23203691213104
10
-123.32975298770278
20
109.29203691213104
10
-123.45405298770277
20
109.38803691213103
10
-123.54935298770278
20
109.51203691213101
10
-123.60935298770278
20
109.65703691213099
10
-123.62975298770279
20
109.81203691213099
10
-123.60935298770278
20
109.96703691213105
10
-123.54935298770278
20
110.11203691213103
10
-123.45405298770277
20
110.236036912131
10
-123.32975298770278
20
110.33203691213102
10
-123.18505298770275
20
110.39203691213102
10
-123.02975298770278
20
110.41203691213106
10
-122.87445298770278
20
110.392036912131
10
-122.72975298770277
20
110.33203691213102
10
-122.6054529877028
20
110.236036912131
10
-122.51015298770277
20
110.11203691213103
10
-122.45025298770278
20
109.96703691213105
10
-122.42975298770277
20
109.81203691213099
10
-122.45025298770278
20
109.65703691213099
10
-122.51015298770277
20
109.51203691213101
10
-122.6054529877028
20
109.38803691213103
10
-122.72975298770277
20
109.29203691213104
10
-122.87445298770278
20
109.23203691213104
10
-123.02975298770278
20
109.21203691213105
0
LWPOLYLINE
5
118
100
AcDbEntity
8
0
100
AcDbPolyline
90
24
70
1
43
0.0
10
-111.81015298770289
20
113.96203691213101
10
-111.90545298770289
20
113.83803691213102
10
-112.02975298770296
20
113.742036912131
10
-112.17445298770289
20
113.682036912131
10
-112.3297529877029
20
113.66203691213104
10
-112.48505298770289
20
113.682036912131
10
-112.62975298770289
20
113.742036912131
10
-112.75405298770293
20
113.83803691213102
10
-112.84935298770284
20
113.96203691213101
10
-112.90935298770285
20
114.10703691213101
10
-112.92975298770286
20
114.26203691213101
10
-112.90935298770285
20
114.41703691213101
10
-112.84935298770284
20
114.56203691213099
10
-112.75405298770293
20
114.68603691213099
10
-112.62975298770289
20
114.78203691213102
10
-112.48505298770289
20
114.84203691213099
10
-112.3297529877029
20
114.862036912131
10
-112.17445298770289
20
114.84203691213099
10
-112.02975298770296
20
114.78203691213102
10
-111.90545298770289
20
114.68603691213099
10
-111.81015298770289
20
114.56203691213099
10
-111.75025298770291
20
114.41703691213101
10
-111.72975298770288
20
114.26203691213101
10
-111.75025298770291
20
114.10703691213101
0
LWPOLYLINE
5
119
100
AcDbEntity
8
0
100
AcDbPolyline
90
24
70
1
43
0.0
10
-112.17445298770289
20
110.12203691213105
10
-112.3297529877029
20
110.10203691213107
10
-112.48505298770289
20
110.12203691213105
10
-112.62975298770289
20
110.18203691213105
10
-112.75405298770293
20
110.27803691213101
10
-112.84935298770284
20
110.40203691213101
10
-112.90935298770285
20
110.54703691213103
10
-112.92975298770286
20
110.70203691213102
10
-112.90935298770285
20
110.85703691213105
10
-112.84935298770284
20
111.00203691213099
10
-112.75405298770293
20
111.12603691213101
10
-112.62975298770289
20
111.22203691213102
10
-112.48505298770289
20
111.28203691213102
10
-112.3297529877029
20
111.302036912131
10
-112.17445298770289
20
111.28203691213102
10
-112.02975298770296
20
111.22203691213102
10
-111.90545298770289
20
111.12603691213101
10
-111.81015298770289
20
111.00203691213102
10
-111.75025298770291
20
110.85703691213105
10
-111.72975298770288
20
110.70203691213102
10
-111.75025298770291
20
110.54703691213103
10
-111.81015298770289
20
110.40203691213101
10
-111.90545298770289
20
110.27803691213101
10
-112.02975298770296
20
110.18203691213105
0
LWPOLYLINE
5
120
100
AcDbEntity
8
0
100
AcDbPolyline
90
24
70
1
43
0.0
10
-111.75025298770291
20
112.32703691213101
10
-111.81015298770289
20
112.18203691213103
10
-111.90545298770289
20
112.05803691213092
10
-112.02975298770296
20
111.96203691213098
10
-112.17445298770289
20
111.902036912131
10
-112.3297529877029
20
111.88203691213101
10
-112.48505298770289
20
111.902036912131
10
-112.62975298770289
20
111.96203691213098
10
-112.75405298770293
20
112.05803691213092
10
-112.84935298770284
20
112.18203691213103
10
-112.90935298770285
20
112.32703691213101
10
-112.92975298770286
20
112.48203691213099
10
-112.90935298770285
20
112.63703691213101
10
-112.84935298770284
20
112.78203691213101
10
-112.75405298770293
20
112.906036912131
10
-112.62975298770289
20
113.00203691213102
10
-112.48505298770289
20
113.06203691213099
10
-112.3297529877029
20
113.08203691213102
10
-112.17445298770289
20
113.06203691213099
10
-112.02975298770296
20
113.00203691213102
10
-111.90545298770289
20
112.90603691213101
10
-111.81015298770289
20
112.78203691213101
10
-111.75025298770291
20
112.63703691213101
10
-111.72975298770288
20
112.48203691213099
0
LWPOLYLINE
5
121
100
AcDbEntity
8
0
100
AcDbPolyline
90
4
70
1
43
0.0
10
-122.42975298770277
20
100.31203691213108
10
-123.62975298770279
20
100.31203691213108
10
-123.62975298770279
20
101.51203691213111
10
-122.42975298770277
20
101.51203691213111
0
LWPOLYLINE
5
122
100
AcDbEntity
8
0
100
AcDbPolyline
90
24
70
1
43
0.0
10
-111.75025298770291
20
106.98703691213105
10
-111.81015298770289
20
106.84203691213106
10
-111.90545298770289
20
106.71803691213107
10
-112.02975298770296
20
106.62203691213111
10
-112.17445298770289
20
106.56203691213105
10
-112.3297529877029
20
106.54203691213105
10
-112.48505298770289
20
106.56203691213105
10
-112.62975298770289
20
106.62203691213111
10
-112.75405298770293
20
106.71803691213108
10
-112.84935298770284
20
106.84203691213106
10
-112.90935298770285
20
106.98703691213105
10
-112.92975298770286
20
107.14203691213106
10
-112.90935298770285
20
107.29703691213103
10
-112.84935298770284
20
107.44203691213102
10
-112.75405298770293
20
107.56603691213104
10
-112.62975298770289
20
107.66203691213107
10
-112.48505298770289
20
107.72203691213105
10
-112.3297529877029
20
107.7420369121311
10
-112.17445298770289
20
107.72203691213105
10
-112.02975298770296
20
107.66203691213107
10
-111.90545298770289
20
107.56603691213107
10
-111.81015298770289
20
107.44203691213102
10
-111.75025298770291
20
107.29703691213103
10
-111.72975298770288
20
107.14203691213106
0
LWPOLYLINE
5
123
100
AcDbEntity
8
0
100
AcDbPolyline
90
24
70
1
43
0.0
10
-112.02975298770296
20
101.28203691213115
10
-112.17445298770289
20
101.22203691213109
10
-112.3297529877029
20
101.20203691213113
10
-112.48505298770289
20
101.22203691213109
10
-112.62975298770289
20
101.28203691213113
10
-112.75405298770293
20
101.37803691213108
10
-112.84935298770284
20
101.50203691213115
10
-112.90935298770285
20
101.64703691213113
10
-112.92975298770286
20
101.80203691213111
10
-112.90935298770285
20
101.95703691213112
10
-112.84935298770284
20
102.10203691213113
10
-112.75405298770293
20
102.22603691213112
10
-112.62975298770289
20
102.32203691213108
10
-112.48505298770289
20
102.38203691213113
10
-112.3297529877029
20
102.40203691213111
10
-112.17445298770289
20
102.38203691213113
10
-112.02975298770296
20
102.32203691213108
10
-111.90545298770289
20
102.22603691213112
10
-111.81015298770289
20
102.10203691213113
10
-111.75025298770291
20
101.95703691213112
10
-111.72975298770288
20
101.80203691213111
10
-111.75025298770291
20
101.64703691213113
10
-111.81015298770289
20
101.50203691213115
10
-111.90545298770289
20
101.37803691213108
0
LWPOLYLINE
5
124
100
AcDbEntity
8
0
100
AcDbPolyline
90
24
70
1
43
0.0
10
-112.92975298770286
20
108.92203691213105
10
-112.90935298770285
20
109.07703691213108
10
-112.84935298770284
20
109.22203691213102
10
-112.75405298770293
20
109.34603691213105
10
-112.62975298770289
20
109.44203691213102
10
-112.48505298770289
20
109.50203691213102
10
-112.3297529877029
20
109.522036912131
10
-112.17445298770289
20
109.50203691213102
10
-112.02975298770296
20
109.44203691213102
10
-111.90545298770289
20
109.34603691213105
10
-111.81015298770289
20
109.22203691213102
10
-111.75025298770291
20
109.07703691213108
10
-111.72975298770288
20
108.92203691213105
10
-111.75025298770291
20
108.76703691213106
10
-111.81015298770289
20
108.62203691213104
10
-111.90545298770289
20
108.49803691213104
10
-112.02975298770296
20
108.40203691213105
10
-112.17445298770289
20
108.34203691213105
10
-112.3297529877029
20
108.32203691213107
10
-112.48505298770289
20
108.34203691213105
10
-112.62975298770289
20
108.40203691213105
10
-112.75405298770293
20
108.49803691213104
10
-112.84935298770284
20
108.62203691213104
10
-112.90935298770285
20
108.76703691213106
0
LWPOLYLINE
5
125
100
AcDbEntity
8
0
100
AcDbPolyline
90
24
70
1
43
0.0
10
-122.87445298770278
20
113.95203691213099
10
-122.72975298770277
20
113.892036912131
10
-122.6054529877028
20
113.79603691213092
10
-122.51015298770277
20
113.67203691213101
10
-122.45025298770278
20
113.527036912131
10
-122.42975298770277
20
113.37203691213102
10
-122.45025298770278
20
113.21703691213099
10
-122.51015298770277
20
113.07203691213101
10
-122.6054529877028
20
112.94803691213097
10
-122.72975298770277
20
112.852036912131
10
-122.87445298770278
20
112.79203691213101
10
-123.02975298770278
20
112.77203691213103
10
-123.18505298770275
20
112.79203691213101
10
-123.32975298770278
20
112.85203691213101
10
-123.45405298770277
20
112.94803691213097
10
-123.54935298770278
20
113.07203691213101
10
-123.60935298770278
20
113.21703691213099
10
-123.62975298770279
20
113.37203691213102
10
-123.60935298770278
20
113.52703691213101
10
-123.54935298770278
20
113.67203691213101
10
-123.45405298770277
20
113.79603691213092
10
-123.32975298770278
20
113.892036912131
10
-123.18505298770275
20
113.95203691213099
10
-123.02975298770278
20
113.97203691213102
0
LWPOLYLINE
5
126
100
AcDbEntity
8
0
100
AcDbPolyline
90
24
70
1
43
0.0
10
-122.72975298770277
20
102.17203691213108
10
-122.87445298770278
20
102.11203691213107
10
-123.02975298770278
20
102.09203691213112
10
-123.18505298770278
20
102.11203691213107
10
-123.32975298770278
20
102.17203691213108
10
-123.45405298770277
20
102.26803691213109
10
-123.54935298770278
20
102.39203691213106
10
-123.60935298770278
20
102.53703691213111
10
-123.62975298770279
20
102.69203691213106
10
-123.60935298770278
20
102.84703691213109
10
-123.54935298770278
20
102.99203691213108
10
-123.45405298770277
20
103.11603691213111
10
-123.32975298770278
20
103.21203691213108
10
-123.18505298770278
20
103.27203691213107
10
-123.02975298770278
20
103.2920369121311
10
-122.87445298770278
20
103.27203691213107
10
-122.72975298770277
20
103.21203691213107
10
-122.6054529877028
20
103.11603691213109
10
-122.51015298770277
20
102.99203691213108
10
-122.45025298770278
20
102.84703691213109
10
-122.42975298770277
20
102.69203691213106
10
-122.45025298770278
20
102.53703691213111
10
-122.51015298770277
20
102.39203691213106
10
-122.6054529877028
20
102.26803691213109
0
LWPOLYLINE
5
127
100
AcDbEntity
8
0
100
AcDbPolyline
90
24
70
1
43
0.0
10
-112.84935298770284
20
103.88203691213107
10
-112.75405298770293
20
104.00603691213109
10
-112.62975298770289
20
104.1020369121311
10
-112.48505298770289
20
104.1620369121311
10
-112.3297529877029
20
104.18203691213108
10
-112.17445298770289
20
104.1620369121311
10
-112.02975298770296
20
104.1020369121311
10
-111.90545298770289
20
104.00603691213109
10
-111.81015298770289
20
103.88203691213107
10
-111.75025298770291
20
103.73703691213109
10
-111.72975298770288
20
103.58203691213109
10
-111.75025298770291
20
103.4270369121311
10
-111.81015298770289
20
103.28203691213116
10
-111.90545298770289
20
103.15803691213111
10
-112.02975298770296
20
103.06203691213106
10
-112.17445298770289
20
103.00203691213113
10
-112.3297529877029
20
102.98203691213111
10
-112.48505298770289
20
103.00203691213113
10
-112.62975298770289
20
103.06203691213106
10
-112.75405298770293
20
103.15803691213111
10
-112.84935298770284
20
103.28203691213116
10
-112.90935298770285
20
103.4270369121311
10
-112.92975298770286
20
103.58203691213109
10
-112.90935298770285
20
103.73703691213109
0
LWPOLYLINE
5
128
100
AcDbEntity
8
0
100
AcDbPolyline
90
24
70
1
43
0.0
10
-123.45405298770277
20
107.60803691213106
10
-123.54935298770278
20
107.73203691213105
10
-123.60935298770278
20
107.87703691213103
10
-123.62975298770279
20
108.03203691213106
10
-123.60935298770278
20
108.18703691213105
10
-123.54935298770278
20
108.33203691213103
10
-123.45405298770277
20
108.45603691213107
10
-123.32975298770278
20
108.55203691213106
10
-123.18505298770278
20
108.61203691213103
10
-123.02975298770278
20
108.63203691213104
10
-122.87445298770278
20
108.61203691213103
10
-122.72975298770277
20
108.55203691213106
10
-122.6054529877028
20
108.45603691213107
10
-122.51015298770277
20
108.33203691213103
10
-122.45025298770278
20
108.18703691213105
10
-122.42975298770277
20
108.03203691213106
10
-122.45025298770278
20
107.87703691213103
10
-122.51015298770277
20
107.73203691213105
10
-122.6054529877028
20
107.60803691213106
10
-122.72975298770277
20
107.51203691213104
10
-122.87445298770278
20
107.45203691213104
10
-123.02975298770278
20
107.43203691213104
10
-123.18505298770278
20
107.45203691213104
10
-123.32975298770278
20
107.51203691213105
0
LWPOLYLINE
5
129
100
AcDbEntity
8
0
100
AcDbPolyline
90
24
70
1
43
0.0
10
-112.02593526698423
20
67.458731421114976
10
-112.15023526698431
20
67.362731421114944
10
-112.29493526698425
20
67.302731421115013
10
-112.45023526698425
20
67.282731421114974
10
-112.60553526698423
20
67.302731421115013
10
-112.75023526698425
20
67.362731421114944
10
-112.87453526698428
20
67.458731421114976
10
-112.96983526698419
20
67.582731421115014
10
-113.02983526698419
20
67.727731421114953
10
-113.0502352669842
20
67.882731421114954
10
-113.02983526698419
20
68.037731421114955
10
-112.96983526698419
20
68.182731421114937
10
-112.87453526698428
20
68.306731421114961
10
-112.75023526698425
20
68.40273142111495
10
-112.60553526698423
20
68.462731421114952
10
-112.45023526698425
20
68.482731421114948
10
-112.29493526698425
20
68.462731421114952
10
-112.15023526698431
20
68.40273142111495
10
-112.02593526698423
20
68.306731421114961
10
-111.93063526698424
20
68.182731421114937
10
-111.87073526698425
20
68.037731421114955
10
-111.85023526698423
20
67.882731421114954
10
-111.87073526698425
20
67.727731421114953
10
-111.93063526698424
20
67.582731421115014
0
LWPOLYLINE
5
130
100
AcDbEntity
8
0
100
AcDbPolyline
90
24
70
1
43
0.0
10
-111.93063526698424
20
77.082731421114886
10
-111.87073526698425
20
76.937731421114876
10
-111.85023526698423
20
76.782731421114875
10
-111.87073526698425
20
76.627731421114873
10
-111.93063526698424
20
76.482731421114877
10
-112.02593526698423
20
76.358731421114783
10
-112.15023526698431
20
76.26273142111485
10
-112.29493526698425
20
76.202731421114862
10
-112.45023526698425
20
76.18273142111488
10
-112.60553526698423
20
76.202731421114862
10
-112.75023526698425
20
76.26273142111485
10
-112.87453526698428
20
76.358731421114783
10
-112.96983526698419
20
76.482731421114877
10
-113.02983526698419
20
76.627731421114873
10
-113.0502352669842
20
76.782731421114875
10
-113.02983526698419
20
76.937731421114876
10
-112.96983526698419
20
77.082731421114886
10
-112.87453526698428
20
77.206731421114881
10
-112.75023526698425
20
77.302731421114885
10
-112.60553526698423
20
77.362731421114859
10
-112.45023526698425
20
77.382731421114883
10
-112.29493526698425
20
77.362731421114859
10
-112.15023526698431
20
77.302731421114885
10
-112.02593526698423
20
77.206731421114881
0
LWPOLYLINE
5
131
100
AcDbEntity
8
0
100
AcDbPolyline
90
24
70
1
43
0.0
10
-112.45023526698425
20
77.96273142111491
10
-112.60553526698423
20
77.982731421114863
10
-112.75023526698425
20
78.042731421114865
10
-112.87453526698428
20
78.138731421114883
10
-112.96983526698419
20
78.262731421114879
10
-113.02983526698419
20
78.407731421114875
10
-113.0502352669842
20
78.562731421114876
10
-113.02983526698419
20
78.717731421114877
10
-112.96983526698419
20
78.862731421114859
10
-112.87453526698428
20
78.986731421114854
10
-112.75023526698425
20
79.082731421114886
10
-112.60553526698423
20
79.14273142111486
10
-112.45023526698425
20
79.16273142111487
10
-112.29493526698425
20
79.14273142111486
10
-112.15023526698431
20
79.082731421114886
10
-112.02593526698423
20
78.986731421114854
10
-111.93063526698424
20
78.862731421114859
10
-111.87073526698425
20
78.717731421114877
10
-111.85023526698423
20
78.562731421114876
10
-111.87073526698425
20
78.407731421114875
10
-111.93063526698424
20
78.262731421114879
10
-112.02593526698423
20
78.138731421114883
10
-112.15023526698431
20
78.042731421114865
10
-112.29493526698425
20
77.982731421114863
0
LWPOLYLINE
5
132
100
AcDbEntity
8
0
100
AcDbPolyline
90
24
70
1
43
0.0
10
-123.57453526698413
20
72.756731421114949
10
-123.45023526698412
20
72.852731421114925
10
-123.30553526698412
20
72.912731421114898
10
-123.15023526698413
20
72.932731421114909
10
-122.99493526698413
20
72.912731421114898
10
-122.85023526698411
20
72.852731421114925
10
-122.72593526698415
20
72.756731421114949
10
-122.63063526698411
20
72.632731421114897
10
-122.57073526698413
20
72.487731421114916
10
-122.55023526698412
20
72.332731421114929
10
-122.57073526698413
20
72.177731421114899
10
-122.63063526698411
20
72.032731421114931
10
-122.72593526698415
20
71.908731421114936
10
-122.85023526698411
20
71.812731421114918
10
-122.99493526698413
20
71.752731421114902
10
-123.15023526698413
20
71.73273142111492
10
-123.30553526698412
20
71.752731421114902
10
-123.45023526698412
20
71.812731421114918
10
-123.57453526698413
20
71.908731421114936
10
-123.66983526698412
20
72.032731421114931
10
-123.72983526698413
20
72.177731421114899
10
-123.75023526698413
20
72.332731421114929
10
-123.72983526698413
20
72.487731421114916
10
-123.66983526698412
20
72.632731421114897
0
LWPOLYLINE
5
133
100
AcDbEntity
8
0
100
AcDbPolyline
90
24
70
1
43
0.0
10
-123.30553526698412
20
68.192731421114928
10
-123.45023526698412
20
68.252731421114973
10
-123.57453526698413
20
68.348731421114934
10
-123.66983526698412
20
68.472731421114958
10
-123.72983526698413
20
68.617731421114911
10
-123.75023526698413
20
68.772731421114926
10
-123.72983526698413
20
68.927731421114927
10
-123.66983526698412
20
69.072731421114952
10
-123.57453526698413
20
69.196731421114919
10
-123.45023526698412
20
69.292731421114951
10
-123.30553526698412
20
69.352731421114953
10
-123.15023526698413
20
69.372731421114935
10
-122.99493526698413
20
69.352731421114953
10
-122.85023526698411
20
69.292731421114951
10
-122.72593526698415
20
69.196731421114919
10
-122.63063526698411
20
69.072731421114952
10
-122.57073526698413
20
68.927731421114927
10
-122.55023526698412
20
68.772731421114926
10
-122.57073526698413
20
68.617731421114911
10
-122.63063526698411
20
68.472731421114958
10
-122.72593526698415
20
68.348731421114934
10
-122.85023526698411
20
68.252731421114973
10
-122.99493526698413
20
68.192731421114928
10
-123.15023526698413
20
68.172731421114975
0
LWPOLYLINE
5
134
100
AcDbEntity
8
0
100
AcDbPolyline
90
24
70
1
43
0.0
10
-123.45023526698412
20
78.192731421114871
10
-123.30553526698409
20
78.252731421114859
10
-123.15023526698413
20
78.272731421114884
10
-122.99493526698413
20
78.252731421114859
10
-122.85023526698411
20
78.192731421114871
10
-122.72593526698415
20
78.096731421114782
10
-122.63063526698411
20
77.972731421114872
10
-122.57073526698413
20
77.827731421114862
10
-122.55023526698412
20
77.672731421114875
10
-122.57073526698413
20
77.51773142111486
10
-122.63063526698411
20
77.372731421114878
10
-122.72593526698415
20
77.248731421114854
10
-122.85023526698411
20
77.152731421114879
10
-122.99493526698413
20
77.092731421114877
10
-123.15023526698413
20
77.072731421114881
10
-123.30553526698409
20
77.092731421114877
10
-123.45023526698412
20
77.152731421114879
10
-123.57453526698413
20
77.248731421114854
10
-123.66983526698412
20
77.372731421114878
10
-123.72983526698413
20
77.51773142111486
10
-123.75023526698413
20
77.672731421114875
10
-123.72983526698413
20
77.827731421114862
10
-123.66983526698412
20
77.972731421114872
10
-123.57453526698413
20
78.096731421114782
0
LWPOLYLINE
5
135
100
AcDbEntity
8
0
100
AcDbPolyline
90
24
70
1
43
0.0
10
-111.87073526698425
20
73.377731421114945
10
-111.85023526698423
20
73.222731421114929
10
-111.87073526698425
20
73.067731421114928
10
-111.93063526698424
20
72.922731421114918
10
-112.02593526698423
20
72.798731421114923
10
-112.15023526698431
20
72.702731421114919
10
-112.29493526698425
20
72.642731421114917
10
-112.45023526698425
20
72.622731421114921
10
-112.60553526698423
20
72.642731421114917
10
-112.75023526698425
20
72.702731421114919
10
-112.87453526698428
20
72.798731421114923
10
-112.96983526698419
20
72.922731421114918
10
-113.02983526698419
20
73.067731421114928
10
-113.0502352669842
20
73.222731421114929
10
-113.02983526698419
20
73.377731421114945
10
-112.96983526698419
20
73.522731421114884
10
-112.87453526698428
20
73.646731421114936
10
-112.75023526698425
20
73.742731421114883
10
-112.60553526698423
20
73.802731421114885
10
-112.45023526698425
20
73.822731421114881
10
-112.29493526698425
20
73.802731421114885
10
-112.15023526698431
20
73.742731421114883
10
-112.02593526698423
20
73.646731421114936
10
-111.93063526698424
20
73.522731421114884
0
LWPOLYLINE
5
136
100
AcDbEntity
8
0
100
AcDbPolyline
90
4
70
1
43
0.0
10
-123.75023526698413
20
64.612731421114944
10
-123.75023526698413
20
65.812731421114975
10
-122.55023526698412
20
65.812731421114975
10
-122.55023526698412
20
64.612731421114944
0
LWPOLYLINE
5
137
100
AcDbEntity
8
0
100
AcDbPolyline
90
24
70
1
43
0.0
10
-123.15023526698413
20
69.952731421114976
10
-123.30553526698412
20
69.972731421114929
10
-123.45023526698412
20
70.032731421114917
10
-123.57453526698413
20
70.128731421114935
10
-123.66983526698412
20
70.252731421114902
10
-123.72983526698413
20
70.397731421114884
10
-123.75023526698413
20
70.552731421114913
10
-123.72983526698413
20
70.707731421114929
10
-123.66983526698412
20
70.852731421114953
10
-123.57453526698413
20
70.976731421114977
10
-123.45023526698412
20
71.072731421114923
10
-123.30553526698412
20
71.132731421114897
10
-123.15023526698413
20
71.152731421114908
10
-122.99493526698413
20
71.132731421114897
10
-122.85023526698411
20
71.072731421114923
10
-122.72593526698415
20
70.976731421114977
10
-122.63063526698411
20
70.852731421114953
10
-122.57073526698413
20
70.707731421114929
10
-122.55023526698412
20
70.552731421114913
10
-122.57073526698413
20
70.397731421114884
10
-122.63063526698411
20
70.252731421114902
10
-122.72593526698415
20
70.128731421114935
10
-122.85023526698411
20
70.032731421114917
10
-122.99493526698413
20
69.972731421114929
0
LWPOLYLINE
5
138
100
AcDbEntity
8
0
100
AcDbPolyline
90
24
70
1
43
0.0
10
-122.55023526698412
20
74.112731421114859
10
-122.57073526698413
20
73.957731421114858
10
-122.63063526698411
20
73.812731421114876
10
-122.72593526698415
20
73.688731421114909
10
-122.85023526698411
20
73.592731421114905
10
-122.99493526698413
20
73.532731421114903
10
-123.15023526698413
20
73.512731421114921
10
-123.30553526698409
20
73.532731421114903
10
-123.45023526698412
20
73.592731421114905
10
-123.57453526698413
20
73.688731421114909
10
-123.66983526698412
20
73.812731421114876
10
-123.72983526698413
20
73.957731421114858
10
-123.75023526698413
20
74.112731421114859
10
-123.72983526698413
20
74.267731421114917
10
-123.66983526698412
20
74.412731421114898
10
-123.57453526698413
20
74.536731421114865
10
-123.45023526698412
20
74.632731421114883
10
-123.30553526698409
20
74.692731421114885
10
-123.15023526698413
20
74.712731421114938
10
-122.99493526698413
20
74.692731421114885
10
-122.85023526698411
20
74.632731421114883
10
-122.72593526698415
20
74.536731421114865
10
-122.63063526698411
20
74.412731421114898
10
-122.57073526698413
20
74.267731421114917
0
LWPOLYLINE
5
139
100
AcDbEntity
8
0
100
AcDbPolyline
90
24
70
1
43
0.0
10
-112.96983526698419
20
71.742731421114897
10
-112.87453526698428
20
71.866731421114935
10
-112.75023526698425
20
71.962731421114938
10
-112.60553526698423
20
72.022731421114898
10
-112.45023526698425
20
72.042731421114951
10
-112.29493526698425
20
72.022731421114898
10
-112.15023526698431
20
71.962731421114938
10
-112.02593526698423
20
71.866731421114935
10
-111.93063526698424
20
71.742731421114897
10
-111.87073526698425
20
71.597731421114901
10
-111.85023526698423
20
71.442731421114928
10
-111.87073526698425
20
71.287731421114927
10
-111.93063526698424
20
71.142731421114945
10
-112.02593526698423
20
71.01873142111495
10
-112.15023526698431
20
70.922731421114975
10
-112.29493526698425
20
70.862731421114916
10
-112.45023526698425
20
70.842731421114934
10
-112.60553526698423
20
70.862731421114916
10
-112.75023526698425
20
70.922731421114975
10
-112.87453526698428
20
71.01873142111495
10
-112.96983526698419
20
71.142731421114945
10
-113.02983526698419
20
71.287731421114927
10
-113.0502352669842
20
71.442731421114928
10
-113.02983526698419
20
71.597731421114901
0
LWPOLYLINE
5
140
100
AcDbEntity
8
0
100
AcDbPolyline
90
24
70
1
43
0.0
10
-112.45023526698425
20
70.262731421114921
10
-112.29493526698425
20
70.242731421114925
10
-112.15023526698431
20
70.182731421114937
10
-112.02593526698423
20
70.086731421114976
10
-111.93063526698424
20
69.962731421114938
10
-111.87073526698425
20
69.817731421114928
10
-111.85023526698423
20
69.662731421114998
10
-111.87073526698425
20
69.507731421114954
10
-111.93063526698424
20
69.362731421114987
10
-112.02593526698423
20
69.238731421114977
10
-112.15023526698431
20
69.142731421114974
10
-112.29493526698425
20
69.082731421115
10
-112.45023526698425
20
69.062731421114975
10
-112.60553526698423
20
69.082731421115
10
-112.75023526698425
20
69.142731421114974
10
-112.87453526698428
20
69.238731421114977
10
-112.96983526698419
20
69.362731421114987
10
-113.02983526698419
20
69.507731421114954
10
-113.0502352669842
20
69.662731421114998
10
-113.02983526698419
20
69.817731421114928
10
-112.96983526698419
20
69.962731421114938
10
-112.87453526698428
20
70.086731421114976
10
-112.75023526698425
20
70.182731421114937
10
-112.60553526698423
20
70.242731421114925
0
LWPOLYLINE
5
141
100
AcDbEntity
8
0
100
AcDbPolyline
90
24
70
1
43
0.0
10
-111.87073526698425
20
74.847731421114901
10
-111.93063526698424
20
74.702731421114891
10
-112.02593526698423
20
74.578731421114881
10
-112.15023526698431
20
74.48273142111492
10
-112.29493526698425
20
74.422731421114918
10
-112.45023526698425
20
74.402731421114922
10
-112.60553526698423
20
74.422731421114918
10
-112.75023526698425
20
74.48273142111492
10
-112.87453526698428
20
74.578731421114881
10
-112.96983526698419
20
74.702731421114891
10
-113.02983526698419
20
74.847731421114901
10
-113.0502352669842
20
75.002731421114902
10
-113.02983526698419
20
75.157731421114931
10
-112.96983526698419
20
75.302731421114885
10
-112.87453526698428
20
75.42673142111488
10
-112.75023526698425
20
75.522731421114884
10
-112.60553526698423
20
75.582731421114886
10
-112.45023526698425
20
75.602731421114868
10
-112.29493526698425
20
75.582731421114886
10
-112.15023526698431
20
75.522731421114884
10
-112.02593526698423
20
75.42673142111488
10
-111.93063526698424
20
75.302731421114885
10
-111.87073526698425
20
75.157731421114931
10
-111.85023526698423
20
75.002731421114902
0
LWPOLYLINE
5
142
100
AcDbEntity
8
0
100
AcDbPolyline
90
24
70
1
43
0.0
10
-123.45023526698412
20
67.51273142111495
10
-123.30553526698412
20
67.572731421114952
10
-123.15023526698413
20
67.592731421114976
10
-122.99493526698413
20
67.572731421114952
10
-122.85023526698411
20
67.51273142111495
10
-122.72593526698415
20
67.416731421114974
10
-122.63063526698411
20
67.292731421114951
10
-122.57073526698413
20
67.147731421114955
10
-122.55023526698412
20
66.992731421114925
10
-122.57073526698413
20
66.837731421114995
10
-122.63063526698411
20
66.692731421114928
10
-122.72593526698415
20
66.568731421114961
10
-122.85023526698411
20
66.472731421114958
10
-122.99493526698413
20
66.412731421114955
10
-123.15023526698413
20
66.392731421115002
10
-123.30553526698412
20
66.412731421114955
10
-123.45023526698412
20
66.472731421114958
10
-123.57453526698413
20
66.568731421114961
10
-123.66983526698412
20
66.692731421114928
10
-123.72983526698413
20
66.837731421114995
10
-123.75023526698413
20
66.992731421114925
10
-123.72983526698413
20
67.147731421114955
10
-123.66983526698412
20
67.292731421114951
10
-123.57453526698413
20
67.416731421114974
0
LWPOLYLINE
5
143
100
AcDbEntity
8
0
100
AcDbPolyline
90
32
70
1
43
0.0
10
-122.08363526698413
20
79.314731421114871
10
-122.0429352669841
20
79.431731421114876
10
-121.97743526698412
20
79.53573142111486
10
-121.89033526698412
20
79.622731421114864
10
-121.78603526698411
20
79.688731421114852
10
-121.66983526698414
20
79.728731421114901
10
-121.54743526698412
20
79.742731421114868
10
-114.04743526698419
20
79.742731421114868
10
-113.92503526698425
20
79.728731421114901
10
-113.80883526698419
20
79.688731421114852
10
-113.70453526698419
20
79.622731421114864
10
-113.61743526698422
20
79.535731421114889
10
-113.55193526698422
20
79.431731421114876
10
-113.51123526698423
20
79.314731421114871
10
-113.4974352669842
20
79.192731421114871
10
-113.4974352669842
20
63.442731421115006
10
-113.51123526698423
20
63.320731421115006
10
-113.55193526698422
20
63.203731421115002
10
-113.61743526698422
20
63.09973142111496
10
-113.70453526698419
20
63.012731421114964
10
-113.80883526698419
20
62.946731421114997
10
-113.92503526698425
20
62.906731421114948
10
-114.04743526698419
20
62.892731421114974
10
-121.54743526698412
20
62.892731421114974
10
-121.66983526698414
20
62.906731421114948
10
-121.78603526698411
20
62.946731421114997
10
-121.89033526698412
20
63.012731421114964
10
-121.97743526698412
20
63.09973142111496
10
-122.0429352669841
20
63.203731421114959
10
-122.08363526698413
20
63.320731421115006
10
-122.09743526698412
20
63.442731421115006
10
-122.09743526698412
20
79.192731421114871
0
LWPOLYLINE
5
144
100
AcDbEntity
8
0
100
AcDbPolyline
90
24
70
1
43
0.0
10
-122.72593526698415
20
75.468731421114882
10
-122.85023526698411
20
75.372731421114835
10
-122.99493526698413
20
75.312731421114833
10
-123.15023526698413
20
75.29273142111488
10
-123.30553526698409
20
75.312731421114833
10
-123.45023526698412
20
75.372731421114835
10
-123.57453526698413
20
75.468731421114882
10
-123.66983526698412
20
75.592731421114877
10
-123.72983526698413
20
75.737731421114873
10
-123.75023526698413
20
75.892731421114888
10
-123.72983526698413
20
76.047731421114861
10
-123.66983526698412
20
76.192731421114843
10
-123.57453526698413
20
76.316731421114838
10
-123.45023526698412
20
76.412731421114842
10
-123.30553526698409
20
76.472731421114872
10
-123.15023526698413
20
76.492731421114883
10
-122.99493526698413
20
76.472731421114872
10
-122.85023526698411
20
76.412731421114842
10
-122.72593526698415
20
76.316731421114838
10
-122.63063526698411
20
76.192731421114843
10
-122.57073526698413
20
76.047731421114861
10
-122.55023526698412
20
75.892731421114888
10
-122.57073526698413
20
75.737731421114873
10
-122.63063526698411
20
75.592731421114877
0
LWPOLYLINE
5
145
100
AcDbEntity
8
0
100
AcDbPolyline
90
24
70
1
43
0.0
10
-113.02983526698419
20
66.257731421114983
10
-112.96983526698419
20
66.402731421114993
10
-112.87453526698428
20
66.526731421114988
10
-112.75023526698425
20
66.622731421114963
10
-112.60553526698423
20
66.682731421114994
10
-112.45023526698425
20
66.702731421114976
10
-112.29493526698425
20
66.682731421114994
10
-112.15023526698431
20
66.622731421114963
10
-112.02593526698423
20
66.526731421114988
10
-111.93063526698424
20
66.402731421114993
10
-111.87073526698425
20
66.257731421114983
10
-111.85023526698423
20
66.102731421114981
10
-111.87073526698425
20
65.947731421115009
10
-111.93063526698424
20
65.802731421115013
10
-112.02593526698423
20
65.678731421114946
10
-112.15023526698431
20
65.582731421115014
10
-112.29493526698425
20
65.522731421114969
10
-112.45023526698425
20
65.502731421115001
10
-112.60553526698423
20
65.522731421114969
10
-112.75023526698425
20
65.582731421115014
10
-112.87453526698428
20
65.678731421114946
10
-112.96983526698419
20
65.802731421115013
10
-113.02983526698419
20
65.947731421115009
10
-113.0502352669842
20
66.102731421114981
0
LWPOLYLINE
5
146
100
AcDbEntity
8
0
100
AcDbPolyline
90
10
70
1
43
0.0
10
-115.50485766921426
20
46.377728886089464
10
-111.00000165402889
20
44.000000655651093
10
-110.69999752566218
20
41.499999072402716
10
-110.68820457908403
20
41.474728349760952
10
-109.96979879543184
20
40.090609127134087
10
-110.00000163912773
20
40.000000596046448
10
-110.79999752342701
20
41.499999072402716
10
-111.00000165402889
20
42.500000633299351
10
-116.50000173598528
20
44.500000663101673
10
-116.50000173598528
20
47.500000707805157
0
LWPOLYLINE
5
147
100
AcDbEntity
8
0
100
AcDbPolyline
90
8
70
1
43
0.0
10
-25.172088136862001
20
66.966367052200169
10
-28.317073136862007
20
54.352522052200165
42
-0.41421356237310325
10
-28.92318194779984
20
53.988335136861998
10
-41.537025947799847
20
57.133320136862011
42
-0.41421356237310508
10
-41.901212863138007
20
57.739428947799844
10
-38.756228863137999
20
70.353272947799837
42
-0.41421356237310131
10
-38.150120052200165
20
70.717459863137989
10
-25.536275052200168
20
67.57247586313801
42
-0.41421356237310197
0
LWPOLYLINE
5
148
100
AcDbEntity
8
0
100
AcDbPolyline
90
8
70
1
43
0.0
10
-137.97035113686201
20
70.465064947799846
10
-134.82536613686199
20
57.851219947799834
42
-0.41421356237308621
10
-135.18955305220015
20
57.245111136862008
10
-147.80339805220018
20
54.100127136862
42
-0.41421356237312912
10
-148.40950686313801
20
54.46431405220018
10
-151.55449086313803
20
67.078158052200166
42
-0.41421356237309881
10
-151.19030394779983
20
67.684266863137992
10
-138.57645994779986
20
70.829251863138026
42
-0.41421356237312407
0
LWPOLYLINE
5
149
100
AcDbEntity
8
0
100
AcDbPolyline
90
8
70
1
43
0.0
10
-9.5683381368620033
20
50.805172052200163
10
-12.713322136862002
20
38.191327052200165
42
-0.41421356237309065
10
-13.319430947799836
20
37.827140136862006
10
-25.933275947799835
20
40.972125136862005
42
-0.41421356237309509
10
-26.297462863137998
20
41.578233947799831
10
-23.152477863137996
20
54.192077947799845
42
-0.41421356237310325
10
-22.546369052200163
20
54.556264863138004
10
-9.9325250522001625
20
51.411280863138003
42
-0.41421356237310197
0
LWPOLYLINE
5
150
100
AcDbEntity
8
0
100
AcDbPolyline
90
8
70
1
43
0.0
10
-84.080948136861991
20
66.929103052200176
10
-87.225933136862025
20
54.315259052200169
42
-0.41421356237309759
10
-87.832041947799837
20
53.95107213686201
10
-100.44588594779982
20
57.096056136862003
42
-0.41421356237311524
10
-100.810072863138
20
57.702164947799844
10
-97.665087863138012
20
70.316009947799841
42
-0.41421356237309126
10
-97.058979052200186
20
70.680196863138008
10
-84.445135052200172
20
67.535211863138016
42
-0.41421356237311141
0
LWPOLYLINE
5
151
100
AcDbEntity
8
0
100
AcDbPolyline
90
8
70
1
43
0.0
10
-54.025599136861999
20
29.985678052200168
10
-57.170584136861997
20
17.371834052200168
42
-0.41421356237309787
10
-57.77669294779983
20
17.007647136862005
10
-70.390536947799831
20
20.152631136862006
42
-0.41421356237310325
10
-70.754723863137997
20
20.758739947799839
10
-67.609739863138017
20
33.372584947799837
42
-0.41421356237310197
10
-67.003631052200177
20
33.736771863137996
10
-54.389786052200158
20
30.591786863138001
42
-0.41421356237310325
0
LWPOLYLINE
5
152
100
AcDbEntity
8
0
100
AcDbPolyline
90
8
70
1
43
0.0
10
-177.242924136862
20
70.489907947799836
10
-174.09794013686198
20
57.876062947799838
42
-0.41421356237309126
10
-174.46212705220012
20
57.269954136862005
10
-187.07597105220017
20
54.124970136862053
42
-0.41421356237306861
10
-187.682079863138
20
54.48915705220017
10
-190.82706486313799
20
67.10300105220017
42
-0.41421356237309126
10
-190.46287794779985
20
67.709109863137996
10
-177.84903294779983
20
70.854094863137988
42
-0.41421356237309881
0
LWPOLYLINE
5
153
100
AcDbEntity
8
0
100
AcDbPolyline
90
8
70
1
43
0.0
10
-66.748968136862004
20
57.699458052200157
10
-69.89395313686201
20
45.085614052200171
42
-0.41421356237310508
10
-70.50006194779985
20
44.721427136862005
10
-83.113905947799822
20
47.866411136862013
42
-0.41421356237308621
10
-83.478092863138016
20
48.472519947799825
10
-80.333108863138008
20
61.086364947799851
42
-0.41421356237310014
10
-79.727000052200168
20
61.45055186313801
10
-67.11315505220017
20
58.30556686313799
42
-0.41421356237310508
0
LWPOLYLINE
5
154
100
AcDbEntity
8
0
100
AcDbPolyline
90
8
70
1
43
0.0
10
-62.14035613686201
20
76.183591052200171
10
-65.285341136862016
20
63.569747052200157
42
-0.41421356237310131
10
-65.891449947799842
20
63.205560136861997
10
-78.505293947799842
20
66.350544136862013
42
-0.41421356237310508
10
-78.869480863137994
20
66.956652947799839
10
-75.724496863138
20
79.570497947799851
42
-0.41421356237310508
10
-75.118388052200174
20
79.934684863138003
10
-62.504543052200177
20
76.789699863137997
42
-0.41421356237310508
0
LWPOLYLINE
5
155
100
AcDbEntity
8
0
100
AcDbPolyline
90
8
70
1
43
0.0
10
-79.472336136861998
20
85.413236052200162
10
-82.617320136862006
20
72.799392052200176
42
-0.41421356237309759
10
-83.223428947799817
20
72.43520513686201
10
-95.837273947799829
20
75.580189136861989
42
-0.41421356237311524
10
-96.20146086313801
20
76.186297947799829
10
-93.056475863138019
20
88.800142947799827
42
-0.41421356237311524
10
-92.450367052200178
20
89.164329863138008
10
-79.836523052200164
20
86.019344863137974
42
-0.41421356237309759
0
LWPOLYLINE
5
156
100
AcDbEntity
8
0
100
AcDbPolyline
90
8
70
1
43
0.0
10
-4.9597261368620016
20
69.289305052200177
10
-8.1047101368620016
20
56.675460052200165
42
-0.41421356237310314
10
-8.7108189477998348
20
56.311273136861999
10
-21.324663947799838
20
59.456258136862004
42
-0.41421356237310197
10
-21.688850863138001
20
60.062366947799852
10
-18.543865863137999
20
72.676210947799845
42
-0.41421356237310286
10
-17.937757052200169
20
73.040397863137997
10
-5.3239130522001616
20
69.895413863138018
42
-0.41421356237310197
0
LWPOLYLINE
5
157
100
AcDbEntity
8
0
100
AcDbPolyline
90
8
70
1
43
0.0
10
-29.780700136862002
20
48.48223405220017
10
-32.925685136862
20
35.868389052200172
42
-0.41421356237308871
10
-33.531793947799841
20
35.504202136862006
10
-46.145637947799841
20
38.649187136862004
42
-0.41421356237310131
10
-46.509824863138007
20
39.255295947799837
10
-43.364840863137985
20
51.869139947799844
42
-0.41421356237310131
10
-42.758732052200159
20
52.233326863138004
10
-30.144887052200168
20
49.088342863137996
42
-0.41421356237309814
0
LWPOLYLINE
5
158
100
AcDbEntity
8
0
100
AcDbPolyline
90
8
70
1
43
0.0
10
-44.808375136862004
20
66.953946052200166
10
-47.953359136862012
20
54.340102052200166
42
-0.41421356237310508
10
-48.559467947799845
20
53.975915136862007
10
-61.173312947799836
20
57.120899136862
42
-0.41421356237310508
10
-61.537499863137995
20
57.727007947799834
10
-58.392514863137997
20
70.340852947799831
42
-0.41421356237310508
10
-57.786406052200164
20
70.705039863137998
10
-45.172562052200163
20
67.560054863137992
42
-0.41421356237310131
0
LWPOLYLINE
5
159
100
AcDbEntity
8
0
100
AcDbPolyline
90
8
70
1
43
0.0
10
-168.02570013686204
20
33.521639947799834
10
-164.88071513686202
20
20.907794947799836
42
-0.41421356237305973
10
-165.24490205220016
20
20.301686136862006
10
-177.85874705220021
20
17.15670213686203
42
-0.4142135623730831
10
-178.46485586313801
20
17.520889052200168
10
-181.60983986313798
20
30.134733052200161
42
-0.41421356237308682
10
-181.24565294779984
20
30.740841863137994
10
-168.63180894779987
20
33.885826863137964
42
-0.41421356237307982
0
LWPOLYLINE
5
160
100
AcDbEntity
8
0
100
AcDbPolyline
90
8
70
1
43
0.0
10
-142.578963136862
20
88.949197947799831
10
-139.43397913686201
20
76.335352947799834
42
-0.41421356237308621
10
-139.79816605220017
20
75.729244136862008
10
-152.41201005220017
20
72.584260136861985
42
-0.41421356237312912
10
-153.01811886313803
20
72.948447052200166
10
-156.16310386313799
20
85.56229105220018
42
-0.41421356237310264
10
-155.79891694779982
20
86.168399863138006
10
-143.18507194779983
20
89.313384863138026
42
-0.41421356237307483
0
LWPOLYLINE
5
161
100
AcDbEntity
8
0
100
AcDbPolyline
90
8
70
1
43
0.0
10
-14.176950136862004
20
32.321037052200168
10
-17.321935136862002
20
19.70719205220017
42
-0.41421356237309659
10
-17.928043947799832
20
19.343005136862004
10
-30.54188794779984
20
22.487990136861995
42
-0.41421356237309193
10
-30.906074863138002
20
23.094098947799836
10
-27.761089863138004
20
35.707942947799836
42
-0.41421356237309193
10
-27.154981052200164
20
36.072129863138002
10
-14.541137052200169
20
32.927145863138001
42
-0.41421356237309315
0
LWPOLYLINE
5
162
100
AcDbEntity
8
0
100
AcDbPolyline
90
8
70
1
43
0.0
10
-207.89739413686203
20
35.949418947799842
10
-204.75240913686204
20
23.335574947799834
42
-0.41421356237309065
10
-205.11659605220018
20
22.729466136862008
10
-217.73044005220018
20
19.584481136862028
42
-0.4142135623730831
10
-218.33654886313798
20
19.948668052200166
10
-221.481533863138
20
32.56251305220016
42
-0.41421356237305973
10
-221.11734694779986
20
33.168621863137993
10
-208.50350294779986
20
36.313605863137973
42
-0.41421356237307982
0
LWPOLYLINE
5
163
100
AcDbEntity
8
0
100
AcDbPolyline
90
8
70
1
43
0.0
10
-49.416987136861998
20
48.469811052200164
10
-52.561972136861996
20
35.855967052200171
42
-0.41421356237309509
10
-53.16808094779983
20
35.491780136862005
10
-65.781924947799851
20
38.636764136862013
42
-0.41421356237310131
10
-66.146111863138003
20
39.242872947799839
10
-63.001126863137998
20
51.856717947799844
42
-0.41421356237310508
10
-62.395018052200165
20
52.220904863138003
10
-49.781174052200157
20
49.075919863137997
42
-0.41421356237310508
0
LWPOLYLINE
5
164
100
AcDbEntity
8
0
100
AcDbPolyline
90
8
70
1
43
0.0
10
-84.15542613686199
20
107.77667505220018
10
-87.300410136861984
20
95.16283105220019
42
-0.41421356237311524
10
-87.906518947799825
20
94.798644136862009
10
-100.52036394779984
20
97.943628136861989
42
-0.41421356237310264
10
-100.88455086313802
20
98.549736947799843
10
-97.739565863138012
20
111.16358194779983
42
-0.41421356237306223
10
-97.133457052200185
20
111.52776886313801
10
-84.519613052200171
20
108.38278386313802
42
-0.41421356237311524
0
LWPOLYLINE
5
165
100
AcDbEntity
8
0
100
AcDbPolyline
90
8
70
1
43
0.0
10
-71.357579136862
20
39.215323052200162
10
-74.502563136861994
20
26.601479052200165
42
-0.41421356237309881
10
-75.108671947799849
20
26.237292136862006
10
-87.722516947799832
20
29.382276136861996
42
-0.41421356237311524
10
-88.086703863138013
20
29.988384947799837
10
-84.941718863137993
20
42.602229947799835
42
-0.41421356237309759
10
-84.335610052200167
20
42.966416863137994
10
-71.721766052200167
20
39.821431863137995
42
-0.41421356237310131
0
LWPOLYLINE
5
166
100
AcDbEntity
8
0
100
AcDbPolyline
90
10
70
1
43
0.0
10
-124.93600789020356
20
41.499999072402716
10
-124.63600376183685
20
44.000000655651093
10
-120.13114774665148
20
46.377728886089464
10
-119.13600367988046
20
47.500000707805157
10
-119.13600367988046
20
44.500000663101673
10
-124.63600376183685
20
42.500000633299351
10
-124.83600789243873
20
41.499999072402716
10
-125.63600377673801
20
40.000000596046448
10
-125.6662066204339
20
40.090609127134087
10
-124.94780083678171
20
41.474728349760952
0
LWPOLYLINE
5
167
100
AcDbEntity
8
0
100
AcDbPolyline
90
8
70
1
43
0.0
10
-65.571593136862006
20
103.10806505220017
10
-68.716577136862014
20
90.494221052200174
42
-0.41421356237308621
10
-69.322685947799826
20
90.130034136861994
10
-81.936530947799824
20
93.275018136861988
42
-0.41421356237311524
10
-82.300717863138004
20
93.881126947799828
10
-79.155732863138013
20
106.49497194779984
42
-0.41421356237311524
10
-78.549624052200173
20
106.85915886313802
10
-65.935780052200172
20
103.714173863138
42
-0.41421356237309759
0
LWPOLYLINE
5
168
100
AcDbEntity
8
0
100
AcDbPolyline
90
8
70
1
43
0.0
10
-34.389312136862003
20
29.99809905220016
10
-37.534297136862008
20
17.384254052200166
42
-0.41421356237309315
10
-38.140405947799842
20
17.020067136862004
10
-50.754249947799849
20
20.165052136862002
42
-0.41421356237310325
10
-51.118436863138008
20
20.771160947799835
10
-47.973452863137993
20
33.385004947799835
42
-0.41421356237309509
10
-47.36734405220016
20
33.749191863137995
10
-34.753499052200169
20
30.604207863137994
42
-0.41421356237308998
0
LWPOLYLINE
5
169
100
AcDbEntity
8
0
100
AcDbPolyline
90
8
70
1
43
0.0
10
-150.693720136862
20
42.751285947799843
10
-147.54873613686203
20
30.137441947799832
42
-0.41421356237311718
10
-147.9129230522002
20
29.531333136862003
10
-160.52676705220017
20
26.386348136862033
42
-0.41421356237307982
10
-161.132875863138
20
26.750535052200167
10
-164.27786086313799
20
39.364380052200161
42
-0.41421356237308682
10
-163.91367394779985
20
39.970488863137994
10
-151.29982894779982
20
43.11547286313801
42
-0.41421356237311774
0
LWPOLYLINE
5
170
100
AcDbEntity
8
0
100
AcDbPolyline
90
8
70
1
43
0.0
10
-212.50600613686203
20
54.433553947799844
10
-209.36102113686204
20
41.819709947799836
42
-0.41421356237306223
10
-209.72520805220017
20
41.213601136862003
10
-222.33905305220017
20
38.068616136862012
42
-0.41421356237309881
10
-222.945161863138
20
38.432803052200171
10
-226.09014586313802
20
51.046648052200176
42
-0.41421356237309126
10
-225.72595894779988
20
51.652756863138009
10
-213.11211494779985
20
54.797740863137996
42
-0.41421356237309881
0
LWPOLYLINE
5
171
100
AcDbEntity
8
0
100
AcDbPolyline
90
8
70
1
43
0.0
10
-192.27059913686202
20
52.018194947799842
10
-189.12561413686208
20
39.404350947799841
42
-0.41421356237306162
10
-189.48980105220019
20
38.798242136862015
10
-202.10364505220016
20
35.65325713686201
42
-0.41421356237309881
10
-202.70975386313802
20
36.017444052200169
10
-205.85473886313798
20
48.631289052200167
42
-0.41421356237306223
10
-205.49055194779984
20
49.237397863138
10
-192.87670794779984
20
52.382381863137972
42
-0.41421356237307361
0
LWPOLYLINE
5
172
100
AcDbEntity
8
0
100
AcDbPolyline
90
8
70
1
43
0.0
10
-217.11461613686203
20
72.917686947799851
10
-213.969632136862
20
60.303842947799836
42
-0.41421356237306223
10
-214.33381905220014
20
59.697734136861996
10
-226.9476630522002
20
56.552749136862033
42
-0.41421356237306861
10
-227.55377186313805
20
56.916936052200157
10
-230.69875686313799
20
69.530781052200169
42
-0.41421356237306223
10
-230.33456994779985
20
70.136889863137995
10
-217.72072494779988
20
73.281873863138003
42
-0.41421356237309881
0
LWPOLYLINE
5
173
100
AcDbEntity
8
0
100
AcDbPolyline
90
8
70
1
43
0.0
10
-196.87921113686204
20
70.502327947799841
10
-193.73422613686202
20
57.888483947799834
42
-0.41421356237306223
10
-194.09841305220016
20
57.282375136862001
10
-206.71225805220016
20
54.13739013686201
42
-0.41421356237309381
10
-207.31836686313798
20
54.501577052200155
10
-210.463350863138
20
67.115422052200159
42
-0.41421356237309126
10
-210.09916394779987
20
67.721530863137986
10
-197.48531994779989
20
70.866514863137965
42
-0.41421356237307361
0
LWPOLYLINE
5
174
100
AcDbEntity
8
0
100
AcDbPolyline
90
8
70
1
43
0.0
10
-187.66198613686203
20
33.534061947799835
10
-184.51700213686206
20
20.920217947799834
42
-0.41421356237306162
10
-184.88118905220017
20
20.314109136862008
10
-197.4950330522002
20
17.169124136862028
42
-0.4142135623730831
10
-198.101141863138
20
17.533311052200165
10
-201.24612686313799
20
30.147155052200162
42
-0.41421356237308682
10
-200.88193994779985
20
30.753263863137995
10
-188.26809494779985
20
33.898248863137965
42
-0.41421356237307982
0
LWPOLYLINE
5
175
100
AcDbEntity
8
0
100
AcDbPolyline
90
8
70
1
43
0.0
10
-159.91094313686199
20
79.719552947799855
10
-156.76595813686203
20
67.105707947799829
42
-0.41421356237308621
10
-157.13014505220019
20
66.499599136862003
10
-169.74399005220016
20
63.354615136862044
42
-0.41421356237306861
10
-170.35009886313799
20
63.718802052200161
10
-173.49508286313801
20
76.332646052200161
42
-0.41421356237306223
10
-173.13089594779984
20
76.938754863137987
10
-160.51705194779984
20
80.083739863138007
42
-0.41421356237309509
0
LWPOLYLINE
5
176
100
AcDbEntity
8
0
100
AcDbPolyline
90
8
70
1
43
0.0
10
-133.36173913686201
20
51.980930947799841
10
-130.21675413686199
20
39.367086947799834
42
-0.41421356237310264
10
-130.58094105220016
20
38.760978136862008
10
-143.19478605220016
20
35.615993136862002
42
-0.41421356237308493
10
-143.80089486313801
20
35.980180052200168
10
-146.94587886313801
20
48.594025052200173
42
-0.41421356237308621
10
-146.58169194779984
20
49.200133863137992
10
-133.96784794779987
20
52.345117863138022
42
-0.41421356237312407
0
LWPOLYLINE
5
177
100
AcDbEntity
8
0
100
AcDbPolyline
90
8
70
1
43
0.0
10
-88.689560136861999
20
48.444970052200169
10
-91.834545136862033
20
35.831126052200169
42
-0.41421356237310702
10
-92.440653947799831
20
35.466939136862003
10
-105.05449794779985
20
38.611923136862004
42
-0.41421356237312978
10
-105.41868486313803
20
39.218031947799837
10
-102.273700863138
20
51.831876947799842
42
-0.41421356237309759
10
-101.66759205220019
20
52.196063863138001
10
-89.05374705220018
20
49.051078863138002
42
-0.41421356237311141
0
LWPOLYLINE
5
178
100
AcDbEntity
8
0
100
AcDbPolyline
90
8
70
1
43
0.0
10
-172.63431213686204
20
52.005774947799843
10
-169.48932713686204
20
39.391929947799838
42
-0.41421356237305973
10
-169.85351405220018
20
38.785821136862012
10
-182.46735905220015
20
35.640837136862032
42
-0.41421356237307982
10
-183.07346786313798
20
36.00502405220017
10
-186.218451863138
20
48.61886805220017
42
-0.41421356237306223
10
-185.85426494779983
20
49.224976863138004
10
-173.24042094779986
20
52.369961863137995
42
-0.41421356237309881
0
LWPOLYLINE
5
179
100
AcDbEntity
8
0
100
AcDbPolyline
90
8
70
1
43
0.0
10
-156.05468413686202
20
106.81956294779985
10
-152.909699136862
20
94.205717947799826
42
-0.41421356237310264
10
-153.27388605220017
20
93.599609136862
10
-165.88773005220017
20
90.454625136862006
42
-0.41421356237311524
10
-166.493838863138
20
90.818812052200173
10
-169.63882386313801
20
103.43265605220019
42
-0.41421356237301427
10
-169.27463694779985
20
104.03876486313803
10
-156.66079294779985
20
107.18374986313802
42
-0.41421356237310264
0
LWPOLYLINE
5
180
100
AcDbEntity
8
0
100
AcDbPolyline
90
8
70
1
43
0.0
10
-155.30233213686202
20
61.235419947799834
10
-152.157348136862
20
48.621574947799829
42
-0.41421356237308621
10
-152.52153505220016
20
48.015466136862003
10
-165.13537905220016
20
44.870482136862009
42
-0.41421356237309381
10
-165.74148786313799
20
45.234669052200154
10
-168.88647286313801
20
57.848513052200168
42
-0.41421356237309126
10
-168.52228594779987
20
58.454621863138001
10
-155.90844094779985
20
61.599606863137993
42
-0.41421356237308493
0
LWPOLYLINE
5
181
100
AcDbEntity
8
0
100
AcDbPolyline
90
8
70
1
43
0.0
10
-137.470850136862
20
111.48817294779985
10
-134.325866136862
20
98.874327947799827
42
-0.41421356237306223
10
-134.69005305220017
20
98.268219136862001
10
-147.30389705220017
20
95.123235136861979
42
-0.41421356237311524
10
-147.91000586313803
20
95.487422052200159
10
-151.05499086313799
20
108.10126605220019
42
-0.41421356237310264
10
-150.69080394779982
20
108.70737486313801
10
-138.07695894779982
20
111.85235986313802
42
-0.41421356237307483
0
ENDSEC
0
SECTION
2
OBJECTS
0
DICTIONARY
5
C
100
AcDbDictionary
3
ACAD_GROUP
350
D
3
ACAD_MLINESTYLE
350
17
0
DICTIONARY
5
D
100
AcDbDictionary
0
DICTIONARY
5
1A
330
C
100
AcDbDictionary
0
DICTIONARY
5
17
100
AcDbDictionary
0
ENDSEC
0
EOF
