0
SECTION
2
HEADER
9
$INSUNITS
70
4
9
$ACADVER
1
AC1014
9
$HANDSEED
5
FFFF
0
ENDSEC
0
SECTION
2
TABLES
0
TABLE
2
VPORT
5
8
100
AcDbSymbolTable
0
ENDTAB
0
TABLE
2
LTYPE
5
5
100
AcDbSymbolTable
0
LTYPE
5
14
100
AcDbSymbolTableRecord
100
AcDbLinetypeTableRecord
2
BYBLOCK
70
0
0
LTYPE
5
15
100
AcDbSymbolTableRecord
100
AcDbLinetypeTableRecord
2
BYLAYER
70
0
0
ENDTAB
0
TABLE
2
LAYER
5
2
100
AcDbSymbolTable
70
2
0
LAYER
5
50
100
AcDbSymbolTableRecord
100
AcDbLayerTableRecord
2
0
70
0
6
CONTINUOUS
0
ENDTAB
0
TABLE
2
STYLE
5
3
100
AcDbSymbolTable
70
1
0
STYLE
5
11
100
AcDbSymbolTableRecord
100
AcDbTextStyleTableRecord
2
STANDARD
70
0
0
ENDTAB
0
TABLE
2
VIEW
5
6
100
AcDbSymbolTable
70
0
0
ENDTAB
0
TABLE
2
UCS
5
7
100
AcDbSymbolTable
70
0
0
ENDTAB
0
TABLE
2
APPID
5
9
100
AcDbSymbolTable
70
2
0
APPID
5
12
100
AcDbSymbolTableRecord
100
AcDbRegAppTableRecord
2
ACAD
70
0
0
ENDTAB
0
TABLE
2
DIMSTYLE
5
A
100
AcDbSymbolTable
70
1
0
ENDTAB
0
TABLE
2
BLOCK_RECORD
5
1
100
AcDbSymbolTable
70
1
0
BLOCK_RECORD
5
1F
100
AcDbSymbolTableRecord
100
AcDbBlockTableRecord
2
*MODEL_SPACE
0
BLOCK_RECORD
5
1B
100
AcDbSymbolTableRecord
100
AcDbBlockTableRecord
2
*PAPER_SPACE
0
ENDTAB
0
ENDSEC
0
SECTION
2
BLOCKS
0
BLOCK
5
20
100
AcDbEntity
100
AcDbBlockBegin
2
*MODEL_SPACE
0
ENDBLK
5
21
100
AcDbEntity
100
AcDbBlockEnd
0
BLOCK
5
1C
100
AcDbEntity
100
AcDbBlockBegin
2
*PAPER_SPACE
0
ENDBLK
5
1D
100
AcDbEntity
100
AcDbBlockEnd
0
ENDSEC
0
SECTION
2
ENTITIES
0
LWPOLYLINE
5
100
100
AcDbEntity
8
0
100
AcDbPolyline
90
24
70
1
43
0.0
10
-111.68587398103168
20
111.41785532634572
10
-111.62597398103168
20
111.27285532634573
10
-111.60547398103168
20
111.11785532634573
10
-111.62597398103168
20
110.96285532634575
10
-111.68587398103168
20
110.81785532634572
10
-111.78117398103169
20
110.69385532634573
10
-111.90547398103172
20
110.59785532634575
10
-112.05017398103169
20
110.53785532634575
10
-112.20547398103167
20
110.51785532634575
10
-112.36077398103166
20
110.53785532634575
10
-112.50547398103166
20
110.59785532634575
10
-112.62977398103169
20
110.69385532634573
10
-112.72507398103164
20
110.81785532634572
10
-112.78507398103162
20
110.96285532634575
10
-112.80547398103164
20
111.11785532634573
10
-112.78507398103162
20
111.27285532634573
10
-112.72507398103164
20
111.41785532634572
10
-112.62977398103169
20
111.54185532634571
10
-112.50547398103166
20
111.63785532634574
10
-112.36077398103166
20
111.69785532634575
10
-112.20547398103167
20
111.71785532634573
10
-112.05017398103169
20
111.69785532634575
10
-111.90547398103172
20
111.63785532634574
10
-111.78117398103169
20
111.54185532634571
0
LWPOLYLINE
5
101
100
AcDbEntity
8
0
100
AcDbPolyline
90
24
70
1
43
0.0
10
-122.48117398103156
20
108.02385532634575
10
-122.60547398103157
20
107.92785532634575
10
-122.75017398103154
20
107.86785532634575
10
-122.90547398103156
20
107.84785532634575
10
-123.06077398103156
20
107.86785532634575
10
-123.20547398103157
20
107.92785532634575
10
-123.32977398103156
20
108.02385532634575
10
-123.42507398103155
20
108.14785532634575
10
-123.48507398103155
20
108.29285532634574
10
-123.50547398103154
20
108.44785532634575
10
-123.48507398103155
20
108.60285532634576
10
-123.42507398103155
20
108.74785532634576
10
-123.32977398103156
20
108.87185532634577
10
-123.20547398103157
20
108.96785532634576
10
-123.06077398103156
20
109.02785532634576
10
-122.90547398103156
20
109.04785532634575
10
-122.75017398103154
20
109.02785532634576
10
-122.60547398103157
20
108.96785532634576
10
-122.48117398103156
20
108.87185532634577
10
-122.38587398103155
20
108.74785532634576
10
-122.32597398103155
20
108.60285532634576
10
-122.30547398103155
20
108.44785532634575
10
-122.32597398103155
20
108.29285532634574
10
-122.38587398103155
20
108.14785532634575
0
LWPOLYLINE
5
102
100
AcDbEntity
8
0
100
AcDbPolyline
90
24
70
1
43
0.0
10
-123.20547398103157
20
107.18785532634577
10
-123.06077398103156
20
107.24785532634577
10
-122.90547398103156
20
107.26785532634577
10
-122.75017398103154
20
107.24785532634577
10
-122.60547398103157
20
107.18785532634577
10
-122.48117398103156
20
107.09185532634578
10
-122.38587398103155
20
106.96785532634578
10
-122.32597398103155
20
106.82285532634577
10
-122.30547398103155
20
106.66785532634577
10
-122.32597398103155
20
106.51285532634574
10
-122.38587398103155
20
106.36785532634576
10
-122.48117398103156
20
106.24385532634577
10
-122.60547398103157
20
106.14785532634578
10
-122.75017398103154
20
106.08785532634577
10
-122.90547398103156
20
106.06785532634578
10
-123.06077398103156
20
106.08785532634577
10
-123.20547398103157
20
106.14785532634578
10
-123.32977398103156
20
106.24385532634577
10
-123.42507398103155
20
106.36785532634576
10
-123.48507398103155
20
106.51285532634574
10
-123.50547398103154
20
106.66785532634577
10
-123.48507398103155
20
106.82285532634577
10
-123.42507398103155
20
106.96785532634578
10
-123.32977398103156
20
107.09185532634578
0
LWPOLYLINE
5
103
100
AcDbEntity
8
0
100
AcDbPolyline
90
32
70
1
43
0.0
10
-121.85267398103156
20
99.557855326345845
10
-121.85267398103156
20
115.3078553263457
10
-121.83887398103155
20
115.42985532634572
10
-121.79817398103154
20
115.54685532634572
10
-121.73267398103155
20
115.65085532634569
10
-121.64557398103156
20
115.73785532634571
10
-121.54127398103155
20
115.80385532634568
10
-121.42507398103155
20
115.8438553263457
10
-121.30267398103156
20
115.85785532634571
10
-113.80267398103163
20
115.85785532634571
10
-113.68027398103169
20
115.8438553263457
10
-113.56407398103164
20
115.80385532634568
10
-113.45977398103162
20
115.73785532634571
10
-113.37267398103165
20
115.65085532634572
10
-113.30717398103164
20
115.54685532634572
10
-113.26647398103165
20
115.42985532634572
10
-113.25267398103165
20
115.3078553263457
10
-113.25267398103165
20
99.557855326345845
10
-113.26647398103165
20
99.435855326345845
10
-113.30717398103164
20
99.31885532634584
10
-113.37267398103165
20
99.214855326345798
10
-113.45977398103162
20
99.127855326345852
10
-113.56407398103164
20
99.061855326345835
10
-113.68027398103169
20
99.021855326345815
10
-113.80267398103163
20
99.007855326345847
10
-121.30267398103156
20
99.007855326345847
10
-121.42507398103155
20
99.021855326345815
10
-121.54127398103155
20
99.061855326345835
10
-121.64557398103156
20
99.127855326345852
10
-121.73267398103155
20
99.214855326345798
10
-121.79817398103154
20
99.318855326345812
10
-121.83887398103155
20
99.435855326345845
0
LWPOLYLINE
5
104
100
AcDbEntity
8
0
100
AcDbPolyline
90
24
70
1
43
0.0
10
-111.68587398103168
20
104.2978553263458
10
-111.62597398103168
20
104.15285532634579
10
-111.60547398103168
20
103.9978553263458
10
-111.62597398103168
20
103.8428553263458
10
-111.68587398103168
20
103.69785532634582
10
-111.78117398103169
20
103.57385532634579
10
-111.90547398103172
20
103.47785532634578
10
-112.05017398103169
20
103.41785532634583
10
-112.20547398103167
20
103.39785532634582
10
-112.36077398103166
20
103.41785532634583
10
-112.50547398103166
20
103.47785532634578
10
-112.62977398103169
20
103.57385532634579
10
-112.72507398103164
20
103.69785532634582
10
-112.78507398103162
20
103.8428553263458
10
-112.80547398103164
20
103.9978553263458
10
-112.78507398103162
20
104.15285532634579
10
-112.72507398103164
20
104.2978553263458
10
-112.62977398103169
20
104.42185532634583
10
-112.50547398103166
20
104.5178553263458
10
-112.36077398103166
20
104.5778553263458
10
-112.20547398103167
20
104.59785532634578
10
-112.05017398103169
20
104.5778553263458
10
-111.90547398103172
20
104.5178553263458
10
-111.78117398103169
20
104.42185532634583
0
LWPOLYLINE
5
105
100
AcDbEntity
8
0
100
AcDbPolyline
90
24
70
1
43
0.0
10
-122.90547398103156
20
104.28785532634579
10
-123.06077398103156
20
104.30785532634579
10
-123.20547398103157
20
104.36785532634579
10
-123.32977398103156
20
104.46385532634578
10
-123.42507398103155
20
104.58785532634579
10
-123.48507398103155
20
104.73285532634577
10
-123.50547398103154
20
104.88785532634577
10
-123.48507398103155
20
105.04285532634577
10
-123.42507398103155
20
105.1878553263458
10
-123.32977398103156
20
105.31185532634578
10
-123.20547398103157
20
105.4078553263458
10
-123.06077398103156
20
105.4678553263458
10
-122.90547398103156
20
105.48785532634579
10
-122.75017398103154
20
105.4678553263458
10
-122.60547398103157
20
105.4078553263458
10
-122.48117398103156
20
105.31185532634578
10
-122.38587398103155
20
105.1878553263458
10
-122.32597398103155
20
105.04285532634577
10
-122.30547398103155
20
104.88785532634577
10
-122.32597398103155
20
104.73285532634577
10
-122.38587398103155
20
104.58785532634579
10
-122.48117398103156
20
104.46385532634578
10
-122.60547398103157
20
104.36785532634579
10
-122.75017398103154
20
104.30785532634579
0
LWPOLYLINE
5
106
100
AcDbEntity
8
0
100
AcDbPolyline
90
24
70
1
43
0.0
10
-122.90547398103156
20
110.82785532634574
10
-122.75017398103154
20
110.80785532634572
10
-122.60547398103157
20
110.74785532634571
10
-122.48117398103156
20
110.65185532634572
10
-122.38587398103155
20
110.52785532634573
10
-122.32597398103155
20
110.38285532634575
10
-122.30547398103155
20
110.22785532634572
10
-122.32597398103155
20
110.07285532634569
10
-122.38587398103155
20
109.92785532634571
10
-122.48117398103156
20
109.80385532634573
10
-122.60547398103157
20
109.70785532634576
10
-122.75017398103154
20
109.64785532634576
10
-122.90547398103156
20
109.62785532634577
10
-123.06077398103155
20
109.64785532634576
10
-123.20547398103153
20
109.70785532634576
10
-123.32977398103156
20
109.80385532634573
10
-123.42507398103155
20
109.92785532634571
10
-123.48507398103155
20
110.07285532634569
10
-123.50547398103154
20
110.22785532634572
10
-123.48507398103155
20
110.38285532634575
10
-123.42507398103155
20
110.52785532634573
10
-123.32977398103156
20
110.65185532634572
10
-123.20547398103153
20
110.74785532634571
10
-123.06077398103155
20
110.80785532634572
0
LWPOLYLINE
5
107
100
AcDbEntity
8
0
100
AcDbPolyline
90
24
70
1
43
0.0
10
-112.05017398103169
20
108.75785532634578
10
-112.20547398103167
20
108.73785532634577
10
-112.36077398103166
20
108.75785532634578
10
-112.50547398103166
20
108.81785532634578
10
-112.62977398103169
20
108.91385532634574
10
-112.72507398103164
20
109.03785532634578
10
-112.78507398103162
20
109.18285532634576
10
-112.80547398103164
20
109.33785532634576
10
-112.78507398103162
20
109.49285532634578
10
-112.72507398103164
20
109.63785532634576
10
-112.62977398103169
20
109.76185532634574
10
-112.50547398103166
20
109.85785532634573
10
-112.36077398103166
20
109.91785532634573
10
-112.20547398103167
20
109.93785532634574
10
-112.05017398103169
20
109.91785532634573
10
-111.90547398103172
20
109.85785532634573
10
-111.78117398103169
20
109.76185532634574
10
-111.68587398103168
20
109.63785532634576
10
-111.62597398103168
20
109.49285532634578
10
-111.60547398103168
20
109.33785532634576
10
-111.62597398103168
20
109.18285532634576
10
-111.68587398103168
20
109.03785532634578
10
-111.78117398103169
20
108.91385532634574
10
-111.90547398103172
20
108.81785532634578
0
LWPOLYLINE
5
108
100
AcDbEntity
8
0
100
AcDbPolyline
90
24
70
1
43
0.0
10
-111.68587398103168
20
112.59785532634572
10
-111.78117398103169
20
112.47385532634566
10
-111.90547398103172
20
112.37785532634574
10
-112.05017398103169
20
112.31785532634574
10
-112.20547398103167
20
112.29785532634571
10
-112.36077398103166
20
112.31785532634574
10
-112.50547398103166
20
112.37785532634574
10
-112.62977398103169
20
112.47385532634566
10
-112.72507398103164
20
112.59785532634572
10
-112.78507398103162
20
112.74285532634572
10
-112.80547398103164
20
112.89785532634573
10
-112.78507398103162
20
113.05285532634572
10
-112.72507398103164
20
113.19785532634572
10
-112.62977398103169
20
113.32185532634571
10
-112.50547398103166
20
113.41785532634573
10
-112.36077398103166
20
113.47785532634573
10
-112.20547398103167
20
113.49785532634571
10
-112.05017398103169
20
113.47785532634573
10
-111.90547398103172
20
113.41785532634573
10
-111.78117398103169
20
113.32185532634571
10
-111.68587398103168
20
113.19785532634572
10
-111.62597398103168
20
113.05285532634572
10
-111.60547398103168
20
112.89785532634573
10
-111.62597398103168
20
112.74285532634572
0
LWPOLYLINE
5
109
100
AcDbEntity
8
0
100
AcDbPolyline
90
24
70
1
43
0.0
10
-111.90547398103172
20
106.29785532634578
10
-111.78117398103169
20
106.20185532634579
10
-111.68587398103168
20
106.0778553263458
10
-111.62597398103168
20
105.93285532634579
10
-111.60547398103168
20
105.77785532634582
10
-111.62597398103168
20
105.62285532634579
10
-111.68587398103168
20
105.47785532634578
10
-111.78117398103169
20
105.35385532634578
10
-111.90547398103172
20
105.25785532634579
10
-112.05017398103169
20
105.19785532634583
10
-112.20547398103167
20
105.17785532634583
10
-112.36077398103166
20
105.19785532634583
10
-112.50547398103166
20
105.25785532634579
10
-112.62977398103169
20
105.35385532634578
10
-112.72507398103164
20
105.47785532634578
10
-112.78507398103162
20
105.62285532634579
10
-112.80547398103164
20
105.77785532634582
10
-112.78507398103162
20
105.93285532634579
10
-112.72507398103164
20
106.0778553263458
10
-112.62977398103169
20
106.20185532634579
10
-112.50547398103166
20
106.29785532634578
10
-112.36077398103166
20
106.35785532634578
10
-112.20547398103167
20
106.37785532634578
10
-112.05017398103169
20
106.35785532634578
0
LWPOLYLINE
5
110
100
AcDbEntity
8
0
100
AcDbPolyline
90
24
70
1
43
0.0
10
-122.30547398103155
20
113.78785532634572
10
-122.32597398103155
20
113.63285532634571
10
-122.38587398103155
20
113.48785532634572
10
-122.48117398103156
20
113.36385532634566
10
-122.60547398103157
20
113.26785532634572
10
-122.75017398103154
20
113.20785532634572
10
-122.90547398103156
20
113.18785532634571
10
-123.06077398103155
20
113.20785532634572
10
-123.20547398103153
20
113.26785532634572
10
-123.32977398103156
20
113.36385532634566
10
-123.42507398103155
20
113.48785532634572
10
-123.48507398103155
20
113.63285532634571
10
-123.50547398103154
20
113.78785532634572
10
-123.48507398103155
20
113.94285532634569
10
-123.42507398103155
20
114.0878553263457
10
-123.32977398103156
20
114.21185532634566
10
-123.20547398103153
20
114.30785532634572
10
-123.06077398103155
20
114.36785532634572
10
-122.90547398103156
20
114.3878553263457
10
-122.75017398103154
20
114.36785532634572
10
-122.60547398103157
20
114.30785532634572
10
-122.48117398103156
20
114.21185532634566
10
-122.38587398103155
20
114.0878553263457
10
-122.32597398103155
20
113.94285532634569
0
LWPOLYLINE
5
111
100
AcDbEntity
8
0
100
AcDbPolyline
90
4
70
1
43
0.0
10
-122.30547398103155
20
100.7278553263458
10
-123.50547398103154
20
100.7278553263458
10
-123.50547398103154
20
101.92785532634581
10
-122.30547398103155
20
101.92785532634581
0
LWPOLYLINE
5
112
100
AcDbEntity
8
0
100
AcDbPolyline
90
24
70
1
43
0.0
10
-112.78507398103162
20
102.37285532634584
10
-112.72507398103164
20
102.51785532634585
10
-112.62977398103169
20
102.64185532634585
10
-112.50547398103166
20
102.73785532634579
10
-112.36077398103166
20
102.79785532634584
10
-112.20547398103167
20
102.81785532634584
10
-112.05017398103169
20
102.79785532634584
10
-111.90547398103172
20
102.73785532634579
10
-111.78117398103169
20
102.64185532634585
10
-111.68587398103168
20
102.51785532634585
10
-111.62597398103168
20
102.37285532634584
10
-111.60547398103168
20
102.21785532634584
10
-111.62597398103168
20
102.06285532634584
10
-111.68587398103168
20
101.91785532634583
10
-111.78117398103169
20
101.79385532634581
10
-111.90547398103172
20
101.69785532634585
10
-112.05017398103169
20
101.6378553263458
10
-112.20547398103167
20
101.61785532634585
10
-112.36077398103166
20
101.6378553263458
10
-112.50547398103166
20
101.69785532634585
10
-112.62977398103169
20
101.79385532634581
10
-112.72507398103164
20
101.91785532634583
10
-112.78507398103162
20
102.06285532634584
10
-112.80547398103164
20
102.21785532634584
0
LWPOLYLINE
5
113
100
AcDbEntity
8
0
100
AcDbPolyline
90
24
70
1
43
0.0
10
-123.32977398103156
20
102.68385532634579
10
-123.42507398103155
20
102.80785532634579
10
-123.48507398103155
20
102.95285532634581
10
-123.50547398103154
20
103.1078553263458
10
-123.48507398103155
20
103.2628553263458
10
-123.42507398103155
20
103.40785532634578
10
-123.32977398103156
20
103.53185532634583
10
-123.20547398103157
20
103.62785532634578
10
-123.06077398103156
20
103.68785532634578
10
-122.90547398103156
20
103.70785532634579
10
-122.75017398103154
20
103.68785532634578
10
-122.60547398103157
20
103.62785532634578
10
-122.48117398103156
20
103.53185532634583
10
-122.38587398103155
20
103.40785532634578
10
-122.32597398103155
20
103.2628553263458
10
-122.30547398103155
20
103.1078553263458
10
-122.32597398103155
20
102.95285532634581
10
-122.38587398103155
20
102.80785532634579
10
-122.48117398103156
20
102.68385532634579
10
-122.60547398103157
20
102.58785532634579
10
-122.75017398103154
20
102.52785532634579
10
-122.90547398103156
20
102.50785532634583
10
-123.06077398103156
20
102.52785532634579
10
-123.20547398103157
20
102.58785532634579
0
LWPOLYLINE
5
114
100
AcDbEntity
8
0
100
AcDbPolyline
90
24
70
1
43
0.0
10
-123.06077398103155
20
112.5878553263457
10
-122.90547398103156
20
112.60785532634571
10
-122.75017398103154
20
112.5878553263457
10
-122.60547398103157
20
112.52785532634567
10
-122.48117398103156
20
112.43185532634567
10
-122.38587398103155
20
112.30785532634567
10
-122.32597398103155
20
112.16285532634572
10
-122.30547398103155
20
112.00785532634572
10
-122.32597398103155
20
111.85285532634573
10
-122.38587398103155
20
111.70785532634571
10
-122.48117398103156
20
111.58385532634568
10
-122.60547398103157
20
111.4878553263457
10
-122.75017398103154
20
111.42785532634569
10
-122.90547398103156
20
111.40785532634574
10
-123.06077398103155
20
111.42785532634569
10
-123.20547398103153
20
111.4878553263457
10
-123.32977398103156
20
111.58385532634568
10
-123.42507398103155
20
111.70785532634571
10
-123.48507398103155
20
111.85285532634573
10
-123.50547398103154
20
112.00785532634572
10
-123.48507398103155
20
112.16285532634572
10
-123.42507398103155
20
112.30785532634567
10
-123.32977398103156
20
112.43185532634567
10
-123.20547398103153
20
112.52785532634567
0
LWPOLYLINE
5
115
100
AcDbEntity
8
0
100
AcDbPolyline
90
24
70
1
43
0.0
10
-111.90547398103172
20
108.07785532634577
10
-111.78117398103169
20
107.98185532634577
10
-111.68587398103168
20
107.85785532634576
10
-111.62597398103168
20
107.71285532634577
10
-111.60547398103168
20
107.55785532634576
10
-111.62597398103168
20
107.40285532634576
10
-111.68587398103168
20
107.25785532634578
10
-111.78117398103169
20
107.13385532634578
10
-111.90547398103172
20
107.03785532634583
10
-112.05017398103169
20
106.97785532634576
10
-112.20547398103167
20
106.95785532634576
10
-112.36077398103166
20
106.97785532634576
10
-112.50547398103166
20
107.03785532634583
10
-112.62977398103169
20
107.13385532634578
10
-112.72507398103164
20
107.25785532634578
10
-112.78507398103162
20
107.40285532634576
10
-112.80547398103164
20
107.55785532634576
10
-112.78507398103162
20
107.71285532634577
10
-112.72507398103164
20
107.85785532634576
10
-112.62977398103169
20
107.98185532634577
10
-112.50547398103166
20
108.07785532634577
10
-112.36077398103166
20
108.13785532634576
10
-112.20547398103167
20
108.15785532634578
10
-112.05017398103169
20
108.13785532634576
0
LWPOLYLINE
5
116
100
AcDbEntity
8
0
100
AcDbPolyline
90
24
70
1
43
0.0
10
-112.36077398103166
20
114.09785532634572
10
-112.50547398103166
20
114.15785532634571
10
-112.62977398103169
20
114.25385532634571
10
-112.72507398103164
20
114.37785532634572
10
-112.78507398103162
20
114.52285532634573
10
-112.80547398103164
20
114.67785532634572
10
-112.78507398103162
20
114.83285532634571
10
-112.72507398103164
20
114.97785532634569
10
-112.62977398103169
20
115.10185532634569
10
-112.50547398103166
20
115.19785532634572
10
-112.36077398103166
20
115.25785532634572
10
-112.20547398103167
20
115.2778553263457
10
-112.05017398103169
20
115.25785532634572
10
-111.90547398103172
20
115.19785532634572
10
-111.78117398103169
20
115.10185532634569
10
-111.68587398103168
20
114.97785532634569
10
-111.62597398103168
20
114.83285532634571
10
-111.60547398103168
20
114.67785532634572
10
-111.62597398103168
20
114.52285532634573
10
-111.68587398103168
20
114.37785532634572
10
-111.78117398103169
20
114.25385532634571
10
-111.90547398103172
20
114.15785532634571
10
-112.05017398103169
20
114.09785532634572
10
-112.20547398103167
20
114.07785532634576
0
LWPOLYLINE
5
117
100
AcDbEntity
8
0
100
AcDbPolyline
90
24
70
1
43
0.0
10
-123.54921352732575
20
67.005569707288572
10
-123.64451352732573
20
67.129569707288567
10
-123.70451352732573
20
67.274569707288606
10
-123.72491352732573
20
67.429569707288579
10
-123.70451352732573
20
67.584569707288594
10
-123.64451352732573
20
67.729569707288576
10
-123.54921352732575
20
67.853569707288628
10
-123.42491352732574
20
67.949569707288589
10
-123.28021352732574
20
68.009569707288591
10
-123.12491352732573
20
68.029569707288587
10
-122.96961352732572
20
68.009569707288591
10
-122.82491352732575
20
67.949569707288589
10
-122.70061352732574
20
67.853569707288628
10
-122.60531352732572
20
67.729569707288576
10
-122.54541352732574
20
67.584569707288594
10
-122.52491352732574
20
67.429569707288579
10
-122.54541352732574
20
67.274569707288606
10
-122.60531352732572
20
67.129569707288567
10
-122.70061352732574
20
67.005569707288572
10
-122.82491352732575
20
66.909569707288597
10
-122.96961352732572
20
66.849569707288595
10
-123.12491352732573
20
66.829569707288641
10
-123.28021352732574
20
66.849569707288595
10
-123.42491352732574
20
66.909569707288597
0
LWPOLYLINE
5
118
100
AcDbEntity
8
0
100
AcDbPolyline
90
24
70
1
43
0.0
10
-123.12491352732573
20
75.149569707288521
10
-122.96961352732572
20
75.129569707288496
10
-122.82491352732575
20
75.069569707288494
10
-122.70061352732574
20
74.973569707288505
10
-122.60531352732572
20
74.849569707288509
10
-122.54541352732574
20
74.704569707288528
10
-122.52491352732574
20
74.549569707288498
10
-122.54541352732574
20
74.394569707288468
10
-122.60531352732572
20
74.249569707288487
10
-122.70061352732574
20
74.125569707288506
10
-122.82491352732575
20
74.02956970728853
10
-122.96961352732572
20
73.969569707288528
10
-123.12491352732573
20
73.949569707288546
10
-123.28021352732571
20
73.969569707288528
10
-123.42491352732571
20
74.02956970728853
10
-123.54921352732575
20
74.125569707288506
10
-123.64451352732573
20
74.249569707288487
10
-123.70451352732573
20
74.394569707288468
10
-123.72491352732573
20
74.549569707288498
10
-123.70451352732573
20
74.704569707288528
10
-123.64451352732573
20
74.849569707288509
10
-123.54921352732575
20
74.973569707288505
10
-123.42491352732571
20
75.069569707288494
10
-123.28021352732571
20
75.129569707288496
0
LWPOLYLINE
5
119
100
AcDbEntity
8
0
100
AcDbPolyline
90
24
70
1
43
0.0
10
-111.90531352732586
20
76.919569707288503
10
-112.00061352732588
20
76.795569707288422
10
-112.12491352732592
20
76.699569707288504
10
-112.26961352732589
20
76.639569707288501
10
-112.42491352732587
20
76.619569707288491
10
-112.58021352732585
20
76.639569707288501
10
-112.72491352732585
20
76.699569707288504
10
-112.84921352732589
20
76.795569707288422
10
-112.94451352732582
20
76.919569707288503
10
-113.00451352732581
20
77.064569707288499
10
-113.02491352732582
20
77.219569707288514
10
-113.00451352732581
20
77.374569707288501
10
-112.94451352732582
20
77.519569707288497
10
-112.84921352732589
20
77.643569707288492
10
-112.72491352732585
20
77.739569707288496
10
-112.58021352732585
20
77.799569707288498
10
-112.42491352732587
20
77.819569707288494
10
-112.26961352732589
20
77.799569707288498
10
-112.12491352732592
20
77.739569707288496
10
-112.00061352732588
20
77.643569707288492
10
-111.90531352732586
20
77.519569707288497
10
-111.84541352732587
20
77.374569707288501
10
-111.82491352732586
20
77.219569707288514
10
-111.84541352732587
20
77.064569707288499
0
LWPOLYLINE
5
120
100
AcDbEntity
8
0
100
AcDbPolyline
90
24
70
1
43
0.0
10
-112.12491352732592
20
70.619569707288576
10
-112.00061352732588
20
70.523569707288587
10
-111.90531352732586
20
70.399569707288592
10
-111.84541352732587
20
70.254569707288567
10
-111.82491352732586
20
70.099569707288623
10
-111.84541352732587
20
69.944569707288593
10
-111.90531352732586
20
69.799569707288569
10
-112.00061352732588
20
69.675569707288574
10
-112.12491352732592
20
69.579569707288584
10
-112.26961352732589
20
69.519569707288611
10
-112.42491352732587
20
69.499569707288629
10
-112.58021352732585
20
69.519569707288611
10
-112.72491352732585
20
69.579569707288584
10
-112.84921352732589
20
69.675569707288574
10
-112.94451352732582
20
69.799569707288569
10
-113.00451352732581
20
69.944569707288593
10
-113.02491352732582
20
70.099569707288623
10
-113.00451352732581
20
70.254569707288567
10
-112.94451352732582
20
70.399569707288592
10
-112.84921352732589
20
70.523569707288587
10
-112.72491352732585
20
70.619569707288576
10
-112.58021352732585
20
70.679569707288579
10
-112.42491352732587
20
70.69956970728856
10
-112.26961352732589
20
70.679569707288579
0
LWPOLYLINE
5
121
100
AcDbEntity
8
0
100
AcDbPolyline
90
24
70
1
43
0.0
10
-111.90531352732586
20
68.619569707288576
10
-111.84541352732587
20
68.47456970728858
10
-111.82491352732586
20
68.319569707288593
10
-111.84541352732587
20
68.164569707288592
10
-111.90531352732586
20
68.019569707288611
10
-112.00061352732588
20
67.895569707288587
10
-112.12491352732592
20
67.799569707288583
10
-112.26961352732589
20
67.739569707288624
10
-112.42491352732587
20
67.719569707288628
10
-112.58021352732585
20
67.739569707288624
10
-112.72491352732585
20
67.799569707288583
10
-112.84921352732589
20
67.895569707288587
10
-112.94451352732582
20
68.019569707288611
10
-113.00451352732581
20
68.164569707288592
10
-113.02491352732582
20
68.319569707288593
10
-113.00451352732581
20
68.47456970728858
10
-112.94451352732582
20
68.619569707288576
10
-112.84921352732589
20
68.743569707288628
10
-112.72491352732585
20
68.839569707288589
10
-112.58021352732585
20
68.899569707288592
10
-112.42491352732587
20
68.919569707288574
10
-112.26961352732589
20
68.899569707288592
10
-112.12491352732592
20
68.839569707288589
10
-112.00061352732588
20
68.743569707288628
0
LWPOLYLINE
5
122
100
AcDbEntity
8
0
100
AcDbPolyline
90
24
70
1
43
0.0
10
-111.90531352732586
20
75.739569707288496
10
-111.84541352732587
20
75.594569707288514
10
-111.82491352732586
20
75.439569707288513
10
-111.84541352732587
20
75.284569707288526
10
-111.90531352732586
20
75.139569707288501
10
-112.00061352732588
20
75.015569707288506
10
-112.12491352732592
20
74.919569707288517
10
-112.26961352732589
20
74.859569707288514
10
-112.42491352732587
20
74.839569707288533
10
-112.58021352732585
20
74.859569707288514
10
-112.72491352732585
20
74.919569707288517
10
-112.84921352732589
20
75.015569707288506
10
-112.94451352732582
20
75.139569707288501
10
-113.00451352732581
20
75.284569707288526
10
-113.02491352732582
20
75.439569707288513
10
-113.00451352732581
20
75.594569707288514
10
-112.94451352732582
20
75.739569707288496
10
-112.84921352732589
20
75.863569707288491
10
-112.72491352732585
20
75.959569707288509
10
-112.58021352732585
20
76.019569707288511
10
-112.42491352732587
20
76.039569707288507
10
-112.26961352732589
20
76.019569707288511
10
-112.12491352732592
20
75.959569707288509
10
-112.00061352732588
20
75.863569707288491
0
LWPOLYLINE
5
123
100
AcDbEntity
8
0
100
AcDbPolyline
90
24
70
1
43
0.0
10
-123.28021352732571
20
76.909569707288483
10
-123.12491352732573
20
76.929569707288493
10
-122.96961352732572
20
76.909569707288483
10
-122.82491352732575
20
76.849569707288452
10
-122.70061352732574
20
76.753569707288435
10
-122.60531352732572
20
76.629569707288439
10
-122.54541352732574
20
76.4845697072885
10
-122.52491352732574
20
76.329569707288499
10
-122.54541352732574
20
76.174569707288512
10
-122.60531352732572
20
76.029569707288488
10
-122.70061352732574
20
75.905569707288464
10
-122.82491352732575
20
75.809569707288475
10
-122.96961352732572
20
75.749569707288472
10
-123.12491352732573
20
75.729569707288519
10
-123.28021352732571
20
75.749569707288472
10
-123.42491352732571
20
75.809569707288475
10
-123.54921352732575
20
75.905569707288464
10
-123.64451352732573
20
76.029569707288488
10
-123.70451352732573
20
76.174569707288512
10
-123.72491352732573
20
76.329569707288499
10
-123.70451352732573
20
76.4845697072885
10
-123.64451352732573
20
76.629569707288439
10
-123.54921352732575
20
76.753569707288435
10
-123.42491352732571
20
76.849569707288452
0
LWPOLYLINE
5
124
100
AcDbEntity
8
0
100
AcDbPolyline
90
24
70
1
43
0.0
10
-123.12491352732573
20
68.609569707288586
10
-123.28021352732574
20
68.629569707288582
10
-123.42491352732574
20
68.689569707288584
10
-123.54921352732575
20
68.785569707288573
10
-123.64451352732573
20
68.909569707288583
10
-123.70451352732573
20
69.054569707288564
10
-123.72491352732573
20
69.209569707288551
10
-123.70451352732573
20
69.364569707288567
10
-123.64451352732573
20
69.509569707288591
10
-123.54921352732575
20
69.633569707288558
10
-123.42491352732574
20
69.72956970728859
10
-123.28021352732574
20
69.789569707288592
10
-123.12491352732573
20
69.809569707288574
10
-122.96961352732572
20
69.789569707288592
10
-122.82491352732575
20
69.72956970728859
10
-122.70061352732574
20
69.633569707288558
10
-122.60531352732572
20
69.509569707288591
10
-122.54541352732574
20
69.364569707288567
10
-122.52491352732574
20
69.209569707288551
10
-122.54541352732574
20
69.054569707288564
10
-122.60531352732572
20
68.909569707288583
10
-122.70061352732574
20
68.785569707288573
10
-122.82491352732575
20
68.689569707288584
10
-122.96961352732572
20
68.629569707288582
0
LWPOLYLINE
5
125
100
AcDbEntity
8
0
100
AcDbPolyline
90
4
70
1
43
0.0
10
-122.52491352732574
20
65.049569707288583
10
-123.72491352732573
20
65.049569707288583
10
-123.72491352732573
20
66.2495697072886
10
-122.52491352732574
20
66.2495697072886
0
LWPOLYLINE
5
126
100
AcDbEntity
8
0
100
AcDbPolyline
90
24
70
1
43
0.0
10
-122.70061352732574
20
72.345569707288533
10
-122.82491352732575
20
72.249569707288529
10
-122.96961352732572
20
72.189569707288527
10
-123.12491352732573
20
72.169569707288531
10
-123.28021352732574
20
72.189569707288527
10
-123.42491352732574
20
72.249569707288529
10
-123.54921352732575
20
72.345569707288533
10
-123.64451352732573
20
72.469569707288528
10
-123.70451352732573
20
72.614569707288524
10
-123.72491352732573
20
72.769569707288525
10
-123.70451352732573
20
72.924569707288526
10
-123.64451352732573
20
73.069569707288537
10
-123.54921352732575
20
73.193569707288546
10
-123.42491352732574
20
73.289569707288535
10
-123.28021352732574
20
73.349569707288538
10
-123.12491352732573
20
73.36956970728852
10
-122.96961352732572
20
73.349569707288538
10
-122.82491352732575
20
73.289569707288535
10
-122.70061352732574
20
73.193569707288546
10
-122.60531352732572
20
73.069569707288537
10
-122.54541352732574
20
72.924569707288526
10
-122.52491352732574
20
72.769569707288525
10
-122.54541352732574
20
72.614569707288524
10
-122.60531352732572
20
72.469569707288528
0
LWPOLYLINE
5
127
100
AcDbEntity
8
0
100
AcDbPolyline
90
24
70
1
43
0.0
10
-112.58021352732585
20
78.419569707288503
10
-112.72491352732585
20
78.479569707288476
10
-112.84921352732589
20
78.575569707288494
10
-112.94451352732582
20
78.699569707288504
10
-113.00451352732581
20
78.8445697072885
10
-113.02491352732582
20
78.999569707288501
10
-113.00451352732581
20
79.154569707288488
10
-112.94451352732582
20
79.29956970728847
10
-112.84921352732589
20
79.423569707288465
10
-112.72491352732585
20
79.519569707288497
10
-112.58021352732585
20
79.579569707288499
10
-112.42491352732587
20
79.599569707288481
10
-112.26961352732589
20
79.579569707288499
10
-112.12491352732592
20
79.519569707288497
10
-112.00061352732588
20
79.423569707288465
10
-111.90531352732586
20
79.29956970728847
10
-111.84541352732587
20
79.154569707288488
10
-111.82491352732586
20
78.999569707288501
10
-111.84541352732587
20
78.8445697072885
10
-111.90531352732586
20
78.699569707288504
10
-112.00061352732588
20
78.575569707288494
10
-112.12491352732592
20
78.479569707288476
10
-112.26961352732589
20
78.419569707288503
10
-112.42491352732587
20
78.399569707288521
0
LWPOLYLINE
5
128
100
AcDbEntity
8
0
100
AcDbPolyline
90
24
70
1
43
0.0
10
-112.12491352732592
20
72.399569707288549
10
-112.00061352732588
20
72.303569707288545
10
-111.90531352732586
20
72.179569707288522
10
-111.84541352732587
20
72.03456970728854
10
-111.82491352732586
20
71.879569707288539
10
-111.84541352732587
20
71.724569707288538
10
-111.90531352732586
20
71.579569707288556
10
-112.00061352732588
20
71.455569707288561
10
-112.12491352732592
20
71.359569707288628
10
-112.26961352732589
20
71.299569707288555
10
-112.42491352732587
20
71.279569707288573
10
-112.58021352732585
20
71.299569707288555
10
-112.72491352732585
20
71.359569707288628
10
-112.84921352732589
20
71.455569707288561
10
-112.94451352732582
20
71.579569707288556
10
-113.00451352732581
20
71.724569707288538
10
-113.02491352732582
20
71.879569707288539
10
-113.00451352732581
20
72.03456970728854
10
-112.94451352732582
20
72.179569707288522
10
-112.84921352732589
20
72.303569707288545
10
-112.72491352732585
20
72.399569707288549
10
-112.58021352732585
20
72.459569707288537
10
-112.42491352732587
20
72.479569707288562
10
-112.26961352732589
20
72.459569707288537
0
LWPOLYLINE
5
129
100
AcDbEntity
8
0
100
AcDbPolyline
90
24
70
1
43
0.0
10
-113.00451352732581
20
66.694569707288622
10
-112.94451352732582
20
66.839569707288646
10
-112.84921352732589
20
66.963569707288642
10
-112.72491352732585
20
67.059569707288603
10
-112.58021352732585
20
67.119569707288633
10
-112.42491352732587
20
67.139569707288615
10
-112.26961352732589
20
67.119569707288633
10
-112.12491352732592
20
67.059569707288603
10
-112.00061352732588
20
66.963569707288642
10
-111.90531352732586
20
66.839569707288646
10
-111.84541352732587
20
66.694569707288622
10
-111.82491352732586
20
66.539569707288635
10
-111.84541352732587
20
66.384569707288648
10
-111.90531352732586
20
66.239569707288624
10
-112.00061352732588
20
66.115569707288586
10
-112.12491352732592
20
66.019569707288639
10
-112.26961352732589
20
65.959569707288608
10
-112.42491352732587
20
65.939569707288655
10
-112.58021352732585
20
65.959569707288608
10
-112.72491352732585
20
66.019569707288639
10
-112.84921352732589
20
66.115569707288586
10
-112.94451352732582
20
66.239569707288624
10
-113.00451352732581
20
66.384569707288648
10
-113.02491352732582
20
66.539569707288635
0
LWPOLYLINE
5
130
100
AcDbEntity
8
0
100
AcDbPolyline
90
24
70
1
43
0.0
10
-112.26961352732589
20
73.079569707288542
10
-112.42491352732587
20
73.059569707288546
10
-112.58021352732585
20
73.079569707288542
10
-112.72491352732585
20
73.139569707288544
10
-112.84921352732589
20
73.235569707288519
10
-112.94451352732582
20
73.359569707288557
10
-113.00451352732581
20
73.504569707288539
10
-113.02491352732582
20
73.65956970728854
10
-113.00451352732581
20
73.814569707288555
10
-112.94451352732582
20
73.959569707288537
10
-112.84921352732589
20
74.083569707288518
10
-112.72491352732585
20
74.179569707288508
10
-112.58021352732585
20
74.23956970728851
10
-112.42491352732587
20
74.259569707288506
10
-112.26961352732589
20
74.23956970728851
10
-112.12491352732592
20
74.179569707288508
10
-112.00061352732588
20
74.083569707288518
10
-111.90531352732586
20
73.959569707288537
10
-111.84541352732587
20
73.814569707288555
10
-111.82491352732586
20
73.65956970728854
10
-111.84541352732587
20
73.504569707288539
10
-111.90531352732586
20
73.359569707288557
10
-112.00061352732588
20
73.235569707288519
10
-112.12491352732592
20
73.139569707288544
0
LWPOLYLINE
5
131
100
AcDbEntity
8
0
100
AcDbPolyline
90
24
70
1
43
0.0
10
-122.52491352732574
20
78.1095697072885
10
-122.54541352732574
20
77.954569707288485
10
-122.60531352732572
20
77.809569707288503
10
-122.70061352732574
20
77.685569707288437
10
-122.82491352732575
20
77.58956970728849
10
-122.96961352732572
20
77.529569707288488
10
-123.12491352732573
20
77.509569707288492
10
-123.28021352732571
20
77.529569707288488
10
-123.42491352732571
20
77.58956970728849
10
-123.54921352732575
20
77.685569707288437
10
-123.64451352732573
20
77.809569707288503
10
-123.70451352732573
20
77.954569707288485
10
-123.72491352732573
20
78.1095697072885
10
-123.70451352732573
20
78.264569707288473
10
-123.64451352732573
20
78.409569707288483
10
-123.54921352732575
20
78.533569707288422
10
-123.42491352732571
20
78.629569707288482
10
-123.28021352732571
20
78.689569707288484
10
-123.12491352732573
20
78.70956970728848
10
-122.96961352732572
20
78.689569707288484
10
-122.82491352732575
20
78.629569707288482
10
-122.70061352732574
20
78.533569707288422
10
-122.60531352732572
20
78.409569707288483
10
-122.54541352732574
20
78.264569707288473
0
LWPOLYLINE
5
132
100
AcDbEntity
8
0
100
AcDbPolyline
90
24
70
1
43
0.0
10
-123.42491352732574
20
71.509569707288549
10
-123.28021352732574
20
71.569569707288551
10
-123.12491352732573
20
71.589569707288533
10
-122.96961352732572
20
71.569569707288551
10
-122.82491352732575
20
71.509569707288549
10
-122.70061352732574
20
71.413569707288573
10
-122.60531352732572
20
71.289569707288578
10
-122.54541352732574
20
71.144569707288554
10
-122.52491352732574
20
70.989569707288567
10
-122.54541352732574
20
70.834569707288537
10
-122.60531352732572
20
70.689569707288555
10
-122.70061352732574
20
70.56556970728856
10
-122.82491352732575
20
70.469569707288571
10
-122.96961352732572
20
70.409569707288568
10
-123.12491352732573
20
70.389569707288587
10
-123.28021352732574
20
70.409569707288568
10
-123.42491352732574
20
70.469569707288571
10
-123.54921352732575
20
70.56556970728856
10
-123.64451352732573
20
70.689569707288555
10
-123.70451352732573
20
70.834569707288537
10
-123.72491352732573
20
70.989569707288567
10
-123.70451352732573
20
71.144569707288554
10
-123.64451352732573
20
71.289569707288578
10
-123.54921352732575
20
71.413569707288573
0
LWPOLYLINE
5
133
100
AcDbEntity
8
0
100
AcDbPolyline
90
32
70
1
43
0.0
10
-122.07211352732573
20
63.879569707288638
10
-122.07211352732573
20
79.629569707288482
10
-122.05831352732574
20
79.751569707288482
10
-122.01761352732572
20
79.868569707288501
10
-121.95211352732572
20
79.972569707288471
10
-121.86501352732574
20
80.059569707288475
10
-121.76071352732572
20
80.125569707288463
10
-121.64451352732571
20
80.165569707288483
10
-121.52211352732573
20
80.179569707288479
10
-114.02211352732581
20
80.179569707288479
10
-113.89971352732589
20
80.165569707288483
10
-113.78351352732582
20
80.125569707288463
10
-113.67921352732581
20
80.059569707288475
10
-113.59211352732585
20
79.9725697072885
10
-113.52661352732584
20
79.868569707288501
10
-113.48591352732585
20
79.751569707288482
10
-113.47211352732585
20
79.629569707288482
10
-113.47211352732585
20
63.879569707288638
10
-113.48591352732585
20
63.757569707288638
10
-113.52661352732584
20
63.640569707288641
10
-113.59211352732585
20
63.536569707288599
10
-113.67921352732581
20
63.449569707288646
10
-113.78351352732582
20
63.383569707288636
10
-113.89971352732589
20
63.343569707288609
10
-114.02211352732581
20
63.329569707288641
10
-121.52211352732573
20
63.329569707288641
10
-121.64451352732571
20
63.343569707288609
10
-121.76071352732572
20
63.383569707288636
10
-121.86501352732574
20
63.449569707288646
10
-121.95211352732572
20
63.536569707288599
10
-122.01761352732572
20
63.640569707288606
10
-122.05831352732574
20
63.757569707288638
0
LWPOLYLINE
5
134
100
AcDbEntity
8
0
100
AcDbPolyline
90
4
70
1
43
0.0
10
-135.03676560944649
20
81.916183538643253
10
-119.03687964187125
20
88.916133649457379
10
-118.63600367242988
20
88.000001311302185
10
-134.63600391084844
20
81.000001206994057
0
LWPOLYLINE
5
135
100
AcDbEntity
8
0
100
AcDbPolyline
90
4
70
1
43
0.0
10
-100.59923980641926
20
81.916183538643253
10
-101.00000150501728
20
81.000001206994057
10
-117.00000174343586
20
88.000001311302185
10
-116.5991257739945
20
88.916133649457379
0
LWPOLYLINE
5
136
100
AcDbEntity
8
0
100
AcDbPolyline
90
4
70
1
43
0.0
10
-135.83834614206421
20
83.748523205194644
10
-119.83857444533231
20
90.748423322514725
10
-119.43775561131262
20
89.832265987612544
10
-135.43752730804451
20
82.832365870292449
0
LWPOLYLINE
5
137
100
AcDbEntity
8
0
100
AcDbPolyline
90
4
70
1
43
0.0
10
-114.99579330249402
20
92.580737992319115
10
-98.996021605762095
20
85.58083787499902
10
-99.396840439781812
20
84.664680540096825
10
-115.39661213651372
20
91.66458065741692
0
LWPOLYLINE
5
138
100
AcDbEntity
8
0
100
AcDbPolyline
90
4
70
1
43
0.0
10
-99.797659273801514
20
83.748523205194644
10
-100.19847810782123
20
82.832365870292449
10
-116.19824980455311
20
89.832265987612544
10
-115.79743097053341
20
90.748423322514725
0
LWPOLYLINE
5
139
100
AcDbEntity
8
0
100
AcDbPolyline
90
4
70
1
43
0.0
10
-120.64021211337172
20
92.580737992319115
10
-120.23939327935202
20
91.66458065741692
10
-136.23916497608394
20
84.664680540096825
10
-136.63998381010364
20
85.58083787499902
0
LWPOLYLINE
5
140
100
AcDbEntity
8
0
100
AcDbPolyline
90
68
70
1
43
0.0
10
-126.44736319172677
20
31.520920504473906
10
-126.38240091346623
20
31.537117419567817
10
-126.28149757034473
20
31.652954884392955
10
-126.8232248748585
20
36.064968987217128
10
-126.4205531581721
20
36.165366316376918
10
-123.31800270793288
20
36.165366316376947
10
-123.31800270793288
20
33.665366301475778
10
-112.31800270793286
20
33.665366301475778
10
-112.31800270793286
20
36.165366316376947
10
-109.81271349488705
20
36.165366316376947
10
-108.81278053804633
20
35.916054986487978
10
-109.36531115356098
20
31.416054990953761
10
-108.92659852286486
20
31.3066716531991
10
-70.636002957174142
20
0
10
-50.214569102890259
20
-4.084456101634709
10
-18.191372044329349
20
1.649251988573488
10
-10.145805392867718
20
33.918259166069753
10
-9.9038834058724685
20
34.888556113910553
10
-5.5371924058724691
20
52.402394113910553
10
-5.2952703928677147
20
53.372689166069762
10
-0.5656975638446804
20
72.341970781369
10
-20.99042278136902
20
77.43442643615532
10
-22.718652162387691
20
70.502876588100747
10
-39.747341153065008
20
74.748605603889843
10
-41.201489245999269
20
75.116684210517519
10
-42.354937810646433
20
70.490455493495205
10
-58.898481387918942
20
74.615223936793598
10
-57.746317444861305
20
79.236301377178094
10
-59.201772153065008
20
79.599139603889824
10
-76.230460506592564
20
83.844868460819669
10
-75.203596290554984
20
87.963396116247281
10
-66.270020218631004
20
85.736005563844657
10
-61.17756456384469
20
106.16073078136901
10
-80.146846166069778
20
110.89030360713231
10
-81.21684116606977
20
111.19222360713231
10
-100.18612278136901
20
115.92179643615535
10
-101.44332391369286
20
110.87943781556717
42
0.80755112370407733
10
-133.70347671034762
20
110.94887833301925
10
-135.02355564415817
20
116.24342484294428
10
-136.479737846935
20
115.88350460388986
10
-153.99357484693496
20
111.51681460388984
10
-155.06357083393024
20
111.21489460713229
10
-174.02654284852696
20
106.4868949381609
10
-173.66996959412756
20
105.02987811391057
10
-169.30327859412753
20
87.516040113910549
10
-168.93278055726537
20
86.062495231741281
10
-160.44817234471256
20
88.177945651639106
10
-160.19424860713232
20
87.159513166069772
10
-159.4049784950287
20
83.993923467322048
10
-176.43366783393026
20
79.748194607132291
10
-177.889111494887
20
79.385311683623073
10
-176.73695838338546
20
74.764278744485807
10
-193.28050135952299
20
70.63951045106721
10
-194.432654218631
20
75.260543436155316
10
-212.91678676080164
20
70.65193184967319
10
-214.66805921863107
20
77.675902436155312
10
-235.09278443615531
20
72.58344678136902
10
-230.36321160713229
20
53.614165166069753
10
-230.12129160388983
20
52.643869153065012
10
-225.75460160388985
20
35.130032153065009
10
-225.51267959088509
20
34.159734100905787
10
-217.40484945634716
20
1.641011022037322
10
-195.00000290572643
20
-3.0000000447034836
10
-165.0000024586916
20
-4.4408920985006262e-15
10
-151.84302914533774
20
10.757237838320419
10
-150.89357213388161
20
9.5959749983927765
10
-142.38069883324798
20
16.556162619162539
10
-143.33015584470411
20
17.717425459090187
0
CIRCLE
5
141
100
AcDbEntity
8
0
100
AcDbCircle
10
-169.53437619480084
20
7.0529095419428085
30
0
40
6.2220569037773288
210
0
220
-0
230
1
0
CIRCLE
5
142
100
AcDbEntity
8
0
100
AcDbCircle
10
-185.00000275671482
20
4.0000000596046448
30
0
40
4.8017619226460431
210
0
220
-0
230
1
0
LWPOLYLINE
5
143
100
AcDbEntity
8
0
100
AcDbPolyline
90
4
70
1
43
0.0
10
-69.760997326167825
20
2.5389755495296749
42
0.93667854553278529
10
-67.70484607286258
20
2.0043762236702833
10
-65.266907417112819
20
11.782414662565486
42
0.96715657576328606
10
-67.311043376684552
20
12.36520470220837
0
LWPOLYLINE
5
144
100
AcDbEntity
8
0
100
AcDbPolyline
90
4
70
1
43
0.0
10
-60.77703182171679
20
-0.22501463142686551
42
0.97257956670817913
10
-58.000000864267335
20
-1.0000000149011556
10
-55.282366743366815
20
9.8998357272112294
42
0.70485670001483014
10
-58.059397700816262
20
10.674821110685501
0
LWPOLYLINE
5
145
100
AcDbEntity
8
0
100
AcDbPolyline
90
4
70
1
43
0.0
10
-51.000000759959221
20
-2.0000000298023224
42
0.98620755707750141
10
-48.950401274374052
20
-2.4854314869145719
10
-46.950401244571729
20
6.5145686471958548
42
1.0139853348552574
10
-49.000000730156891
20
7.0000001043081328
0
LWPOLYLINE
5
146
100
AcDbEntity
8
0
100
AcDbPolyline
90
10
70
1
43
0.0
10
-115.50485766921426
20
46.377728886089464
10
-111.00000165402889
20
44.000000655651093
10
-110.69999752566218
20
41.499999072402716
10
-110.68820457908403
20
41.474728349760952
10
-109.96979879543184
20
40.090609127134087
10
-110.00000163912773
20
40.000000596046448
10
-110.79999752342701
20
41.499999072402716
10
-111.00000165402889
20
42.500000633299351
10
-116.50000173598528
20
44.500000663101673
10
-116.50000173598528
20
47.500000707805157
0
LWPOLYLINE
5
147
100
AcDbEntity
8
0
100
AcDbPolyline
90
8
70
1
43
0.0
10
-25.172088136862001
20
66.966367052200169
10
-28.317073136862007
20
54.352522052200165
42
-0.41421356237310325
10
-28.92318194779984
20
53.988335136861998
10
-41.537025947799847
20
57.133320136862011
42
-0.41421356237310508
10
-41.901212863138007
20
57.739428947799844
10
-38.756228863137999
20
70.353272947799837
42
-0.41421356237310131
10
-38.150120052200165
20
70.717459863137989
10
-25.536275052200168
20
67.57247586313801
42
-0.41421356237310197
0
LWPOLYLINE
5
148
100
AcDbEntity
8
0
100
AcDbPolyline
90
8
70
1
43
0.0
10
-137.97035113686201
20
70.465064947799846
10
-134.82536613686199
20
57.851219947799834
42
-0.41421356237308621
10
-135.18955305220015
20
57.245111136862008
10
-147.80339805220018
20
54.100127136862
42
-0.41421356237312912
10
-148.40950686313801
20
54.46431405220018
10
-151.55449086313803
20
67.078158052200166
42
-0.41421356237309881
10
-151.19030394779983
20
67.684266863137992
10
-138.57645994779986
20
70.829251863138026
42
-0.41421356237312407
0
LWPOLYLINE
5
149
100
AcDbEntity
8
0
100
AcDbPolyline
90
8
70
1
43
0.0
10
-9.5683381368620033
20
50.805172052200163
10
-12.713322136862002
20
38.191327052200165
42
-0.41421356237309065
10
-13.319430947799836
20
37.827140136862006
10
-25.933275947799835
20
40.972125136862005
42
-0.41421356237309509
10
-26.297462863137998
20
41.578233947799831
10
-23.152477863137996
20
54.192077947799845
42
-0.41421356237310325
10
-22.546369052200163
20
54.556264863138004
10
-9.9325250522001625
20
51.411280863138003
42
-0.41421356237310197
0
LWPOLYLINE
5
150
100
AcDbEntity
8
0
100
AcDbPolyline
90
8
70
1
43
0.0
10
-84.080948136861991
20
66.929103052200176
10
-87.225933136862025
20
54.315259052200169
42
-0.41421356237309759
10
-87.832041947799837
20
53.95107213686201
10
-100.44588594779982
20
57.096056136862003
42
-0.41421356237311524
10
-100.810072863138
20
57.702164947799844
10
-97.665087863138012
20
70.316009947799841
42
-0.41421356237309126
10
-97.058979052200186
20
70.680196863138008
10
-84.445135052200172
20
67.535211863138016
42
-0.41421356237311141
0
LWPOLYLINE
5
151
100
AcDbEntity
8
0
100
AcDbPolyline
90
8
70
1
43
0.0
10
-54.025599136861999
20
29.985678052200168
10
-57.170584136861997
20
17.371834052200168
42
-0.41421356237309787
10
-57.77669294779983
20
17.007647136862005
10
-70.390536947799831
20
20.152631136862006
42
-0.41421356237310325
10
-70.754723863137997
20
20.758739947799839
10
-67.609739863138017
20
33.372584947799837
42
-0.41421356237310197
10
-67.003631052200177
20
33.736771863137996
10
-54.389786052200158
20
30.591786863138001
42
-0.41421356237310325
0
LWPOLYLINE
5
152
100
AcDbEntity
8
0
100
AcDbPolyline
90
8
70
1
43
0.0
10
-177.242924136862
20
70.489907947799836
10
-174.09794013686198
20
57.876062947799838
42
-0.41421356237309126
10
-174.46212705220012
20
57.269954136862005
10
-187.07597105220017
20
54.124970136862053
42
-0.41421356237306861
10
-187.682079863138
20
54.48915705220017
10
-190.82706486313799
20
67.10300105220017
42
-0.41421356237309126
10
-190.46287794779985
20
67.709109863137996
10
-177.84903294779983
20
70.854094863137988
42
-0.41421356237309881
0
LWPOLYLINE
5
153
100
AcDbEntity
8
0
100
AcDbPolyline
90
8
70
1
43
0.0
10
-66.748968136862004
20
57.699458052200157
10
-69.89395313686201
20
45.085614052200171
42
-0.41421356237310508
10
-70.50006194779985
20
44.721427136862005
10
-83.113905947799822
20
47.866411136862013
42
-0.41421356237308621
10
-83.478092863138016
20
48.472519947799825
10
-80.333108863138008
20
61.086364947799851
42
-0.41421356237310014
10
-79.727000052200168
20
61.45055186313801
10
-67.11315505220017
20
58.30556686313799
42
-0.41421356237310508
0
LWPOLYLINE
5
154
100
AcDbEntity
8
0
100
AcDbPolyline
90
8
70
1
43
0.0
10
-62.14035613686201
20
76.183591052200171
10
-65.285341136862016
20
63.569747052200157
42
-0.41421356237310131
10
-65.891449947799842
20
63.205560136861997
10
-78.505293947799842
20
66.350544136862013
42
-0.41421356237310508
10
-78.869480863137994
20
66.956652947799839
10
-75.724496863138
20
79.570497947799851
42
-0.41421356237310508
10
-75.118388052200174
20
79.934684863138003
10
-62.504543052200177
20
76.789699863137997
42
-0.41421356237310508
0
LWPOLYLINE
5
155
100
AcDbEntity
8
0
100
AcDbPolyline
90
8
70
1
43
0.0
10
-79.472336136861998
20
85.413236052200162
10
-82.617320136862006
20
72.799392052200176
42
-0.41421356237309759
10
-83.223428947799817
20
72.43520513686201
10
-95.837273947799829
20
75.580189136861989
42
-0.41421356237311524
10
-96.20146086313801
20
76.186297947799829
10
-93.056475863138019
20
88.800142947799827
42
-0.41421356237311524
10
-92.450367052200178
20
89.164329863138008
10
-79.836523052200164
20
86.019344863137974
42
-0.41421356237309759
0
LWPOLYLINE
5
156
100
AcDbEntity
8
0
100
AcDbPolyline
90
8
70
1
43
0.0
10
-4.9597261368620016
20
69.289305052200177
10
-8.1047101368620016
20
56.675460052200165
42
-0.41421356237310314
10
-8.7108189477998348
20
56.311273136861999
10
-21.324663947799838
20
59.456258136862004
42
-0.41421356237310197
10
-21.688850863138001
20
60.062366947799852
10
-18.543865863137999
20
72.676210947799845
42
-0.41421356237310286
10
-17.937757052200169
20
73.040397863137997
10
-5.3239130522001616
20
69.895413863138018
42
-0.41421356237310197
0
LWPOLYLINE
5
157
100
AcDbEntity
8
0
100
AcDbPolyline
90
8
70
1
43
0.0
10
-29.780700136862002
20
48.48223405220017
10
-32.925685136862
20
35.868389052200172
42
-0.41421356237308871
10
-33.531793947799841
20
35.504202136862006
10
-46.145637947799841
20
38.649187136862004
42
-0.41421356237310131
10
-46.509824863138007
20
39.255295947799837
10
-43.364840863137985
20
51.869139947799844
42
-0.41421356237310131
10
-42.758732052200159
20
52.233326863138004
10
-30.144887052200168
20
49.088342863137996
42
-0.41421356237309814
0
LWPOLYLINE
5
158
100
AcDbEntity
8
0
100
AcDbPolyline
90
8
70
1
43
0.0
10
-44.808375136862004
20
66.953946052200166
10
-47.953359136862012
20
54.340102052200166
42
-0.41421356237310508
10
-48.559467947799845
20
53.975915136862007
10
-61.173312947799836
20
57.120899136862
42
-0.41421356237310508
10
-61.537499863137995
20
57.727007947799834
10
-58.392514863137997
20
70.340852947799831
42
-0.41421356237310508
10
-57.786406052200164
20
70.705039863137998
10
-45.172562052200163
20
67.560054863137992
42
-0.41421356237310131
0
LWPOLYLINE
5
159
100
AcDbEntity
8
0
100
AcDbPolyline
90
8
70
1
43
0.0
10
-168.02570013686204
20
33.521639947799834
10
-164.88071513686202
20
20.907794947799836
42
-0.41421356237305973
10
-165.24490205220016
20
20.301686136862006
10
-177.85874705220021
20
17.15670213686203
42
-0.4142135623730831
10
-178.46485586313801
20
17.520889052200168
10
-181.60983986313798
20
30.134733052200161
42
-0.41421356237308682
10
-181.24565294779984
20
30.740841863137994
10
-168.63180894779987
20
33.885826863137964
42
-0.41421356237307982
0
LWPOLYLINE
5
160
100
AcDbEntity
8
0
100
AcDbPolyline
90
8
70
1
43
0.0
10
-142.578963136862
20
88.949197947799831
10
-139.43397913686201
20
76.335352947799834
42
-0.41421356237308621
10
-139.79816605220017
20
75.729244136862008
10
-152.41201005220017
20
72.584260136861985
42
-0.41421356237312912
10
-153.01811886313803
20
72.948447052200166
10
-156.16310386313799
20
85.56229105220018
42
-0.41421356237310264
10
-155.79891694779982
20
86.168399863138006
10
-143.18507194779983
20
89.313384863138026
42
-0.41421356237307483
0
LWPOLYLINE
5
161
100
AcDbEntity
8
0
100
AcDbPolyline
90
8
70
1
43
0.0
10
-14.176950136862004
20
32.321037052200168
10
-17.321935136862002
20
19.70719205220017
42
-0.41421356237309659
10
-17.928043947799832
20
19.343005136862004
10
-30.54188794779984
20
22.487990136861995
42
-0.41421356237309193
10
-30.906074863138002
20
23.094098947799836
10
-27.761089863138004
20
35.707942947799836
42
-0.41421356237309193
10
-27.154981052200164
20
36.072129863138002
10
-14.541137052200169
20
32.927145863138001
42
-0.41421356237309315
0
LWPOLYLINE
5
162
100
AcDbEntity
8
0
100
AcDbPolyline
90
8
70
1
43
0.0
10
-207.89739413686203
20
35.949418947799842
10
-204.75240913686204
20
23.335574947799834
42
-0.41421356237309065
10
-205.11659605220018
20
22.729466136862008
10
-217.73044005220018
20
19.584481136862028
42
-0.4142135623730831
10
-218.33654886313798
20
19.948668052200166
10
-221.481533863138
20
32.56251305220016
42
-0.41421356237305973
10
-221.11734694779986
20
33.168621863137993
10
-208.50350294779986
20
36.313605863137973
42
-0.41421356237307982
0
LWPOLYLINE
5
163
100
AcDbEntity
8
0
100
AcDbPolyline
90
8
70
1
43
0.0
10
-49.416987136861998
20
48.469811052200164
10
-52.561972136861996
20
35.855967052200171
42
-0.41421356237309509
10
-53.16808094779983
20
35.491780136862005
10
-65.781924947799851
20
38.636764136862013
42
-0.41421356237310131
10
-66.146111863138003
20
39.242872947799839
10
-63.001126863137998
20
51.856717947799844
42
-0.41421356237310508
10
-62.395018052200165
20
52.220904863138003
10
-49.781174052200157
20
49.075919863137997
42
-0.41421356237310508
0
LWPOLYLINE
5
164
100
AcDbEntity
8
0
100
AcDbPolyline
90
8
70
1
43
0.0
10
-84.15542613686199
20
107.77667505220018
10
-87.300410136861984
20
95.16283105220019
42
-0.41421356237311524
10
-87.906518947799825
20
94.798644136862009
10
-100.52036394779984
20
97.943628136861989
42
-0.41421356237310264
10
-100.88455086313802
20
98.549736947799843
10
-97.739565863138012
20
111.16358194779983
42
-0.41421356237306223
10
-97.133457052200185
20
111.52776886313801
10
-84.519613052200171
20
108.38278386313802
42
-0.41421356237311524
0
LWPOLYLINE
5
165
100
AcDbEntity
8
0
100
AcDbPolyline
90
8
70
1
43
0.0
10
-71.357579136862
20
39.215323052200162
10
-74.502563136861994
20
26.601479052200165
42
-0.41421356237309881
10
-75.108671947799849
20
26.237292136862006
10
-87.722516947799832
20
29.382276136861996
42
-0.41421356237311524
10
-88.086703863138013
20
29.988384947799837
10
-84.941718863137993
20
42.602229947799835
42
-0.41421356237309759
10
-84.335610052200167
20
42.966416863137994
10
-71.721766052200167
20
39.821431863137995
42
-0.41421356237310131
0
LWPOLYLINE
5
166
100
AcDbEntity
8
0
100
AcDbPolyline
90
10
70
1
43
0.0
10
-124.93600789020356
20
41.499999072402716
10
-124.63600376183685
20
44.000000655651093
10
-120.13114774665148
20
46.377728886089464
10
-119.13600367988046
20
47.500000707805157
10
-119.13600367988046
20
44.500000663101673
10
-124.63600376183685
20
42.500000633299351
10
-124.83600789243873
20
41.499999072402716
10
-125.63600377673801
20
40.000000596046448
10
-125.6662066204339
20
40.090609127134087
10
-124.94780083678171
20
41.474728349760952
0
LWPOLYLINE
5
167
100
AcDbEntity
8
0
100
AcDbPolyline
90
8
70
1
43
0.0
10
-65.571593136862006
20
103.10806505220017
10
-68.716577136862014
20
90.494221052200174
42
-0.41421356237308621
10
-69.322685947799826
20
90.130034136861994
10
-81.936530947799824
20
93.275018136861988
42
-0.41421356237311524
10
-82.300717863138004
20
93.881126947799828
10
-79.155732863138013
20
106.49497194779984
42
-0.41421356237311524
10
-78.549624052200173
20
106.85915886313802
10
-65.935780052200172
20
103.714173863138
42
-0.41421356237309759
0
LWPOLYLINE
5
168
100
AcDbEntity
8
0
100
AcDbPolyline
90
8
70
1
43
0.0
10
-34.389312136862003
20
29.99809905220016
10
-37.534297136862008
20
17.384254052200166
42
-0.41421356237309315
10
-38.140405947799842
20
17.020067136862004
10
-50.754249947799849
20
20.165052136862002
42
-0.41421356237310325
10
-51.118436863138008
20
20.771160947799835
10
-47.973452863137993
20
33.385004947799835
42
-0.41421356237309509
10
-47.36734405220016
20
33.749191863137995
10
-34.753499052200169
20
30.604207863137994
42
-0.41421356237308998
0
LWPOLYLINE
5
169
100
AcDbEntity
8
0
100
AcDbPolyline
90
8
70
1
43
0.0
10
-150.693720136862
20
42.751285947799843
10
-147.54873613686203
20
30.137441947799832
42
-0.41421356237311718
10
-147.9129230522002
20
29.531333136862003
10
-160.52676705220017
20
26.386348136862033
42
-0.41421356237307982
10
-161.132875863138
20
26.750535052200167
10
-164.27786086313799
20
39.364380052200161
42
-0.41421356237308682
10
-163.91367394779985
20
39.970488863137994
10
-151.29982894779982
20
43.11547286313801
42
-0.41421356237311774
0
LWPOLYLINE
5
170
100
AcDbEntity
8
0
100
AcDbPolyline
90
8
70
1
43
0.0
10
-212.50600613686203
20
54.433553947799844
10
-209.36102113686204
20
41.819709947799836
42
-0.41421356237306223
10
-209.72520805220017
20
41.213601136862003
10
-222.33905305220017
20
38.068616136862012
42
-0.41421356237309881
10
-222.945161863138
20
38.432803052200171
10
-226.09014586313802
20
51.046648052200176
42
-0.41421356237309126
10
-225.72595894779988
20
51.652756863138009
10
-213.11211494779985
20
54.797740863137996
42
-0.41421356237309881
0
LWPOLYLINE
5
171
100
AcDbEntity
8
0
100
AcDbPolyline
90
8
70
1
43
0.0
10
-192.27059913686202
20
52.018194947799842
10
-189.12561413686208
20
39.404350947799841
42
-0.41421356237306162
10
-189.48980105220019
20
38.798242136862015
10
-202.10364505220016
20
35.65325713686201
42
-0.41421356237309881
10
-202.70975386313802
20
36.017444052200169
10
-205.85473886313798
20
48.631289052200167
42
-0.41421356237306223
10
-205.49055194779984
20
49.237397863138
10
-192.87670794779984
20
52.382381863137972
42
-0.41421356237307361
0
LWPOLYLINE
5
172
100
AcDbEntity
8
0
100
AcDbPolyline
90
8
70
1
43
0.0
10
-217.11461613686203
20
72.917686947799851
10
-213.969632136862
20
60.303842947799836
42
-0.41421356237306223
10
-214.33381905220014
20
59.697734136861996
10
-226.9476630522002
20
56.552749136862033
42
-0.41421356237306861
10
-227.55377186313805
20
56.916936052200157
10
-230.69875686313799
20
69.530781052200169
42
-0.41421356237306223
10
-230.33456994779985
20
70.136889863137995
10
-217.72072494779988
20
73.281873863138003
42
-0.41421356237309881
0
LWPOLYLINE
5
173
100
AcDbEntity
8
0
100
AcDbPolyline
90
8
70
1
43
0.0
10
-196.87921113686204
20
70.502327947799841
10
-193.73422613686202
20
57.888483947799834
42
-0.41421356237306223
10
-194.09841305220016
20
57.282375136862001
10
-206.71225805220016
20
54.13739013686201
42
-0.41421356237309381
10
-207.31836686313798
20
54.501577052200155
10
-210.463350863138
20
67.115422052200159
42
-0.41421356237309126
10
-210.09916394779987
20
67.721530863137986
10
-197.48531994779989
20
70.866514863137965
42
-0.41421356237307361
0
LWPOLYLINE
5
174
100
AcDbEntity
8
0
100
AcDbPolyline
90
8
70
1
43
0.0
10
-187.66198613686203
20
33.534061947799835
10
-184.51700213686206
20
20.920217947799834
42
-0.41421356237306162
10
-184.88118905220017
20
20.314109136862008
10
-197.4950330522002
20
17.169124136862028
42
-0.4142135623730831
10
-198.101141863138
20
17.533311052200165
10
-201.24612686313799
20
30.147155052200162
42
-0.41421356237308682
10
-200.88193994779985
20
30.753263863137995
10
-188.26809494779985
20
33.898248863137965
42
-0.41421356237307982
0
LWPOLYLINE
5
175
100
AcDbEntity
8
0
100
AcDbPolyline
90
8
70
1
43
0.0
10
-159.91094313686199
20
79.719552947799855
10
-156.76595813686203
20
67.105707947799829
42
-0.41421356237308621
10
-157.13014505220019
20
66.499599136862003
10
-169.74399005220016
20
63.354615136862044
42
-0.41421356237306861
10
-170.35009886313799
20
63.718802052200161
10
-173.49508286313801
20
76.332646052200161
42
-0.41421356237306223
10
-173.13089594779984
20
76.938754863137987
10
-160.51705194779984
20
80.083739863138007
42
-0.41421356237309509
0
LWPOLYLINE
5
176
100
AcDbEntity
8
0
100
AcDbPolyline
90
8
70
1
43
0.0
10
-133.36173913686201
20
51.980930947799841
10
-130.21675413686199
20
39.367086947799834
42
-0.41421356237310264
10
-130.58094105220016
20
38.760978136862008
10
-143.19478605220016
20
35.615993136862002
42
-0.41421356237308493
10
-143.80089486313801
20
35.980180052200168
10
-146.94587886313801
20
48.594025052200173
42
-0.41421356237308621
10
-146.58169194779984
20
49.200133863137992
10
-133.96784794779987
20
52.345117863138022
42
-0.41421356237312407
0
LWPOLYLINE
5
177
100
AcDbEntity
8
0
100
AcDbPolyline
90
8
70
1
43
0.0
10
-88.689560136861999
20
48.444970052200169
10
-91.834545136862033
20
35.831126052200169
42
-0.41421356237310702
10
-92.440653947799831
20
35.466939136862003
10
-105.05449794779985
20
38.611923136862004
42
-0.41421356237312978
10
-105.41868486313803
20
39.218031947799837
10
-102.273700863138
20
51.831876947799842
42
-0.41421356237309759
10
-101.66759205220019
20
52.196063863138001
10
-89.05374705220018
20
49.051078863138002
42
-0.41421356237311141
0
LWPOLYLINE
5
178
100
AcDbEntity
8
0
100
AcDbPolyline
90
8
70
1
43
0.0
10
-172.63431213686204
20
52.005774947799843
10
-169.48932713686204
20
39.391929947799838
42
-0.41421356237305973
10
-169.85351405220018
20
38.785821136862012
10
-182.46735905220015
20
35.640837136862032
42
-0.41421356237307982
10
-183.07346786313798
20
36.00502405220017
10
-186.218451863138
20
48.61886805220017
42
-0.41421356237306223
10
-185.85426494779983
20
49.224976863138004
10
-173.24042094779986
20
52.369961863137995
42
-0.41421356237309881
0
LWPOLYLINE
5
179
100
AcDbEntity
8
0
100
AcDbPolyline
90
8
70
1
43
0.0
10
-156.05468413686202
20
106.81956294779985
10
-152.909699136862
20
94.205717947799826
42
-0.41421356237310264
10
-153.27388605220017
20
93.599609136862
10
-165.88773005220017
20
90.454625136862006
42
-0.41421356237311524
10
-166.493838863138
20
90.818812052200173
10
-169.63882386313801
20
103.43265605220019
42
-0.41421356237301427
10
-169.27463694779985
20
104.03876486313803
10
-156.66079294779985
20
107.18374986313802
42
-0.41421356237310264
0
LWPOLYLINE
5
180
100
AcDbEntity
8
0
100
AcDbPolyline
90
8
70
1
43
0.0
10
-155.30233213686202
20
61.235419947799834
10
-152.157348136862
20
48.621574947799829
42
-0.41421356237308621
10
-152.52153505220016
20
48.015466136862003
10
-165.13537905220016
20
44.870482136862009
42
-0.41421356237309381
10
-165.74148786313799
20
45.234669052200154
10
-168.88647286313801
20
57.848513052200168
42
-0.41421356237309126
10
-168.52228594779987
20
58.454621863138001
10
-155.90844094779985
20
61.599606863137993
42
-0.41421356237308493
0
LWPOLYLINE
5
181
100
AcDbEntity
8
0
100
AcDbPolyline
90
8
70
1
43
0.0
10
-137.470850136862
20
111.48817294779985
10
-134.325866136862
20
98.874327947799827
42
-0.41421356237306223
10
-134.69005305220017
20
98.268219136862001
10
-147.30389705220017
20
95.123235136861979
42
-0.41421356237311524
10
-147.91000586313803
20
95.487422052200159
10
-151.05499086313799
20
108.10126605220019
42
-0.41421356237310264
10
-150.69080394779982
20
108.70737486313801
10
-138.07695894779982
20
111.85235986313802
42
-0.41421356237307483
0
ENDSEC
0
SECTION
2
OBJECTS
0
DICTIONARY
5
C
100
AcDbDictionary
3
ACAD_GROUP
350
D
3
ACAD_MLINESTYLE
350
17
0
DICTIONARY
5
D
100
AcDbDictionary
0
DICTIONARY
5
1A
330
C
100
AcDbDictionary
0
DICTIONARY
5
17
100
AcDbDictionary
0
ENDSEC
0
EOF
